<?xml version="1.0" encoding="UTF-8"?><svg xmlns="http://www.w3.org/2000/svg" width="828.77" height="908.25" viewBox="0 0 828.77 908.25"><defs><style>.d{fill:#fff;}</style></defs><g id="a"/><g id="b"><g><rect width="828.77" height="908.25"/><g><path class="d" d="M103.88,111.48l-11-4.85v-1.58l11-5.49v2.66l-7.57,3.51,7.57,3.11v2.65Z"/><path class="d" d="M106.16,112.15c0-.62,.17-1.09,.5-1.41s.82-.48,1.45-.48,1.09,.16,1.42,.49,.5,.79,.5,1.4-.17,1.04-.51,1.38c-.34,.34-.81,.5-1.42,.5s-1.1-.16-1.44-.49c-.34-.33-.51-.79-.51-1.39Zm3.31-3.79h-2.7l-.56-10.82h3.83l-.56,10.82Z"/><path class="d" d="M126.82,105.48c0,2.67-.76,4.71-2.28,6.12s-3.71,2.13-6.57,2.13h-4.58v-16.19h5.08c2.64,0,4.69,.7,6.16,2.09s2.19,3.34,2.19,5.85Zm-3.57,.09c0-3.48-1.54-5.21-4.61-5.21h-1.83v10.54h1.47c3.31,0,4.96-1.78,4.96-5.33Z"/><path class="d" d="M144.87,105.61c0,2.68-.67,4.74-1.99,6.18-1.33,1.44-3.23,2.16-5.71,2.16s-4.38-.72-5.71-2.16c-1.33-1.44-1.99-3.51-1.99-6.2s.67-4.75,2-6.17c1.33-1.42,3.24-2.13,5.73-2.13s4.39,.72,5.71,2.15c1.32,1.43,1.98,3.49,1.98,6.18Zm-11.82,0c0,1.81,.34,3.17,1.03,4.09s1.71,1.37,3.08,1.37c2.74,0,4.11-1.82,4.11-5.46s-1.36-5.47-4.09-5.47c-1.37,0-2.4,.46-3.09,1.38-.69,.92-1.04,2.28-1.04,4.09Z"/><path class="d" d="M155.1,100.17c-1.29,0-2.29,.49-3,1.46-.71,.97-1.06,2.32-1.06,4.06,0,3.61,1.35,5.41,4.06,5.41,1.14,0,2.51-.28,4.13-.85v2.88c-1.33,.55-2.81,.83-4.45,.83-2.36,0-4.16-.71-5.4-2.14-1.25-1.43-1.87-3.48-1.87-6.15,0-1.68,.31-3.16,.92-4.42,.61-1.27,1.49-2.24,2.64-2.91,1.15-.67,2.49-1.01,4.04-1.01s3.15,.38,4.74,1.14l-1.11,2.79c-.61-.29-1.21-.54-1.83-.75-.61-.21-1.21-.32-1.8-.32Z"/><path class="d" d="M168.92,113.73h-3.43v-13.33h-4.4v-2.86h12.22v2.86h-4.4v13.33Z"/><path class="d" d="M180.84,104.21l3.38-6.67h3.7l-5.37,9.89v6.3h-3.41v-6.19l-5.37-10h3.72l3.35,6.67Z"/><path class="d" d="M201.14,102.59c0,1.74-.54,3.08-1.63,4s-2.64,1.38-4.65,1.38h-1.47v5.76h-3.43v-16.19h5.17c1.96,0,3.46,.42,4.48,1.27,1.02,.85,1.53,2.11,1.53,3.78Zm-7.75,2.57h1.13c1.06,0,1.84-.21,2.37-.63s.79-1.02,.79-1.82-.22-1.4-.66-1.78c-.44-.38-1.13-.58-2.07-.58h-1.56v4.81Z"/><path class="d" d="M213.52,113.73h-9.32v-16.19h9.32v2.81h-5.89v3.55h5.48v2.81h-5.48v4.17h5.89v2.83Z"/><path class="d" d="M233.95,113.73h-3.38v-7.23c0-1.79-.66-2.68-1.99-2.68-.94,0-1.63,.32-2.05,.96-.42,.64-.63,1.68-.63,3.12v5.82h-3.38v-17.23h3.38v3.51c0,.27-.03,.92-.08,1.93l-.08,1h.18c.75-1.21,1.95-1.82,3.59-1.82,1.45,0,2.56,.39,3.31,1.17,.75,.78,1.13,1.9,1.13,3.37v8.07Z"/><path class="d" d="M242.64,111.26c.59,0,1.3-.13,2.13-.39v2.51c-.84,.38-1.88,.56-3.1,.56-1.35,0-2.33-.34-2.95-1.02s-.92-1.71-.92-3.07v-5.97h-1.62v-1.43l1.86-1.13,.97-2.61h2.16v2.63h3.47v2.54h-3.47v5.97c0,.48,.13,.83,.4,1.06s.63,.34,1.07,.34Z"/><path class="d" d="M258.35,113.73h-3.38v-7.23c0-.89-.15-1.56-.45-2.01-.3-.45-.77-.67-1.41-.67-.86,0-1.49,.32-1.88,.95-.39,.63-.59,1.68-.59,3.13v5.82h-3.38v-12.38h2.58l.45,1.58h.19c.33-.57,.81-1.01,1.44-1.33,.63-.32,1.35-.48,2.16-.48,1.85,0,3.11,.61,3.76,1.82h.3c.33-.58,.82-1.02,1.47-1.34,.65-.32,1.38-.48,2.19-.48,1.4,0,2.46,.36,3.18,1.08s1.08,1.87,1.08,3.46v8.07h-3.39v-7.23c0-.89-.15-1.56-.45-2.01s-.77-.67-1.41-.67c-.83,0-1.45,.29-1.86,.89-.41,.59-.61,1.53-.61,2.81v6.21Z"/><path class="d" d="M272.91,113.73h-3.38v-17.23h3.38v17.23Z"/><path class="d" d="M275.66,108.84l7.57-3.11-7.57-3.51v-2.66l11,5.49v1.58l-11,4.85v-2.65Z"/><path class="d" d="M103.88,162.51l-11-4.85v-1.58l11-5.49v2.66l-7.57,3.51,7.57,3.11v2.65Z"/><path class="d" d="M118.06,164.75h-3.38v-7.23c0-1.79-.66-2.68-1.99-2.68-.94,0-1.63,.32-2.05,.96-.42,.64-.63,1.68-.63,3.12v5.82h-3.38v-17.23h3.38v3.51c0,.27-.03,.92-.08,1.93l-.08,1h.18c.75-1.21,1.95-1.82,3.59-1.82,1.45,0,2.56,.39,3.31,1.17,.75,.78,1.13,1.9,1.13,3.37v8.07Z"/><path class="d" d="M126.75,162.28c.59,0,1.3-.13,2.13-.39v2.51c-.84,.38-1.88,.56-3.1,.56-1.35,0-2.33-.34-2.95-1.02s-.92-1.71-.92-3.07v-5.97h-1.62v-1.43l1.86-1.13,.97-2.61h2.16v2.63h3.47v2.54h-3.47v5.97c0,.48,.13,.83,.4,1.06s.63,.34,1.07,.34Z"/><path class="d" d="M142.46,164.75h-3.38v-7.23c0-.89-.15-1.56-.45-2.01-.3-.45-.77-.67-1.41-.67-.86,0-1.49,.32-1.88,.95-.39,.63-.59,1.68-.59,3.13v5.82h-3.38v-12.38h2.58l.45,1.58h.19c.33-.57,.81-1.01,1.44-1.33,.63-.32,1.35-.48,2.16-.48,1.85,0,3.11,.61,3.76,1.82h.3c.33-.58,.82-1.02,1.47-1.34,.65-.32,1.38-.48,2.19-.48,1.4,0,2.46,.36,3.18,1.08s1.08,1.87,1.08,3.46v8.07h-3.39v-7.23c0-.89-.15-1.56-.45-2.01s-.77-.67-1.41-.67c-.83,0-1.45,.29-1.86,.89-.41,.59-.61,1.53-.61,2.81v6.21Z"/><path class="d" d="M157.02,164.75h-3.38v-17.23h3.38v17.23Z"/><path class="d" d="M169.83,164.75h-3.38v-17.23h3.38v17.23Z"/><path class="d" d="M181.24,164.75l-.65-1.68h-.09c-.57,.72-1.15,1.21-1.75,1.49-.6,.28-1.39,.42-2.35,.42-1.19,0-2.12-.34-2.81-1.02-.68-.68-1.02-1.65-1.02-2.9s.46-2.28,1.38-2.91c.92-.62,2.3-.97,4.16-1.04l2.15-.07v-.54c0-1.25-.64-1.88-1.93-1.88-.99,0-2.15,.3-3.49,.9l-1.12-2.28c1.42-.75,3-1.12,4.74-1.12s2.93,.36,3.82,1.08,1.33,1.82,1.33,3.3v8.25h-2.36Zm-1-5.74l-1.31,.04c-.98,.03-1.71,.21-2.19,.53-.48,.33-.72,.82-.72,1.48,0,.95,.55,1.43,1.64,1.43,.78,0,1.41-.22,1.88-.67s.7-1.05,.7-1.79v-1.02Z"/><path class="d" d="M198.5,164.75h-3.38v-7.23c0-.89-.16-1.56-.48-2.01s-.82-.67-1.52-.67c-.94,0-1.63,.32-2.05,.95-.42,.63-.63,1.68-.63,3.14v5.82h-3.38v-12.38h2.58l.45,1.58h.19c.38-.6,.89-1.05,1.56-1.36,.66-.31,1.41-.46,2.25-.46,1.44,0,2.53,.39,3.28,1.17,.75,.78,1.12,1.9,1.12,3.37v8.07Z"/><path class="d" d="M212.75,152.37v1.72l-1.94,.5c.35,.55,.53,1.17,.53,1.86,0,1.33-.46,2.36-1.39,3.11-.93,.74-2.21,1.11-3.86,1.11l-.61-.03-.5-.06c-.35,.27-.52,.56-.52,.89,0,.49,.62,.73,1.86,.73h2.1c1.36,0,2.39,.29,3.11,.88,.71,.58,1.07,1.44,1.07,2.57,0,1.45-.6,2.57-1.81,3.37s-2.94,1.2-5.2,1.2c-1.73,0-3.05-.3-3.96-.9-.91-.6-1.37-1.44-1.37-2.53,0-.75,.23-1.37,.7-1.87,.47-.5,1.15-.86,2.05-1.07-.35-.15-.65-.39-.91-.73-.26-.34-.39-.69-.39-1.07,0-.47,.14-.87,.41-1.18,.27-.31,.67-.62,1.18-.92-.65-.28-1.16-.73-1.54-1.35-.38-.62-.57-1.35-.57-2.19,0-1.35,.44-2.4,1.32-3.13,.88-.74,2.13-1.11,3.76-1.11,.35,0,.76,.03,1.23,.09,.48,.06,.78,.11,.91,.14h4.32Zm-9.56,14.13c0,.47,.22,.83,.67,1.1,.45,.27,1.07,.4,1.88,.4,1.21,0,2.16-.17,2.85-.5s1.03-.79,1.03-1.36c0-.46-.2-.79-.61-.96-.41-.18-1.03-.27-1.88-.27h-1.75c-.62,0-1.14,.15-1.56,.44-.42,.29-.63,.68-.63,1.16Zm1.23-10.08c0,.67,.15,1.2,.46,1.59,.31,.39,.77,.59,1.4,.59s1.1-.2,1.4-.59c.29-.39,.44-.92,.44-1.59,0-1.49-.61-2.24-1.84-2.24s-1.86,.75-1.86,2.24Z"/><path class="d" d="M214,155.84v-2.42h11v2.42h-11Zm0,4.29v-2.42h11v2.42h-11Z"/><path class="d" d="M230.53,148.57l-.45,5.85h-2.18l-.45-5.85h3.09Zm4.67,0l-.45,5.85h-2.18l-.45-5.85h3.09Z"/><path class="d" d="M244.05,164.98c-1.99,0-3.55-.55-4.67-1.65-1.12-1.1-1.68-2.66-1.68-4.67s.52-3.68,1.56-4.81,2.47-1.7,4.3-1.7,3.11,.5,4.09,1.5c.97,1,1.46,2.37,1.46,4.13v1.64h-7.98c.04,.96,.32,1.71,.85,2.25,.53,.54,1.28,.81,2.24,.81,.75,0,1.45-.08,2.12-.23s1.36-.4,2.08-.74v2.61c-.59,.29-1.22,.51-1.89,.66-.67,.14-1.49,.22-2.46,.22Zm-.48-10.43c-.72,0-1.28,.23-1.68,.68-.41,.45-.64,1.1-.7,1.93h4.74c-.01-.83-.23-1.48-.65-1.93s-.99-.68-1.71-.68Z"/><path class="d" d="M263.27,164.75h-3.38v-7.23c0-.89-.16-1.56-.48-2.01s-.82-.67-1.52-.67c-.94,0-1.63,.32-2.05,.95-.42,.63-.63,1.68-.63,3.14v5.82h-3.38v-12.38h2.58l.45,1.58h.19c.38-.6,.89-1.05,1.56-1.36,.66-.31,1.41-.46,2.25-.46,1.44,0,2.53,.39,3.28,1.17,.75,.78,1.12,1.9,1.12,3.37v8.07Z"/><path class="d" d="M269.54,148.57l-.45,5.85h-2.18l-.45-5.85h3.09Zm4.67,0l-.45,5.85h-2.18l-.45-5.85h3.09Z"/><path class="d" d="M276.66,159.86l7.57-3.11-7.57-3.51v-2.66l11,5.49v1.58l-11,4.85v-2.65Z"/><path class="d" d="M103.88,213.53l-11-4.85v-1.58l11-5.49v2.66l-7.57,3.51,7.57,3.11v2.65Z"/><path class="d" d="M118.06,215.78h-3.38v-7.23c0-1.79-.66-2.68-1.99-2.68-.94,0-1.63,.32-2.05,.96-.42,.64-.63,1.68-.63,3.12v5.82h-3.38v-17.23h3.38v3.51c0,.27-.03,.92-.08,1.93l-.08,1h.18c.75-1.21,1.95-1.82,3.59-1.82,1.45,0,2.56,.39,3.31,1.17,.75,.78,1.13,1.9,1.13,3.37v8.07Z"/><path class="d" d="M127.14,216c-1.99,0-3.55-.55-4.67-1.65-1.12-1.1-1.68-2.66-1.68-4.67s.52-3.68,1.56-4.81,2.47-1.7,4.3-1.7,3.11,.5,4.09,1.5c.97,1,1.46,2.37,1.46,4.13v1.64h-7.98c.04,.96,.32,1.71,.85,2.25,.53,.54,1.28,.81,2.24,.81,.75,0,1.45-.08,2.12-.23s1.36-.4,2.08-.74v2.61c-.59,.29-1.22,.51-1.89,.66-.67,.14-1.49,.22-2.46,.22Zm-.48-10.43c-.72,0-1.28,.23-1.68,.68-.41,.45-.64,1.1-.7,1.93h4.74c-.01-.83-.23-1.48-.65-1.93s-.99-.68-1.71-.68Z"/><path class="d" d="M142.8,215.78l-.65-1.68h-.09c-.57,.72-1.15,1.21-1.75,1.49-.6,.28-1.39,.42-2.35,.42-1.19,0-2.12-.34-2.81-1.02-.68-.68-1.02-1.65-1.02-2.9s.46-2.28,1.38-2.91c.92-.62,2.3-.97,4.16-1.04l2.15-.07v-.54c0-1.25-.64-1.88-1.93-1.88-.99,0-2.15,.3-3.49,.9l-1.12-2.28c1.42-.75,3-1.12,4.74-1.12s2.93,.36,3.82,1.08,1.33,1.82,1.33,3.3v8.25h-2.36Zm-1-5.74l-1.31,.04c-.98,.03-1.71,.21-2.19,.53-.48,.33-.72,.82-.72,1.48,0,.95,.55,1.43,1.64,1.43,.78,0,1.41-.22,1.88-.67s.7-1.05,.7-1.79v-1.02Z"/><path class="d" d="M152.55,216c-1.45,0-2.6-.56-3.43-1.69-.83-1.13-1.25-2.69-1.25-4.7s.42-3.61,1.27-4.74c.85-1.13,2.01-1.7,3.49-1.7,1.56,0,2.75,.61,3.57,1.82h.11c-.17-.92-.25-1.75-.25-2.47v-3.96h3.39v17.23h-2.59l-.65-1.61h-.14c-.77,1.22-1.94,1.83-3.51,1.83Zm1.18-2.69c.86,0,1.5-.25,1.9-.75,.4-.5,.62-1.35,.66-2.56v-.37c0-1.33-.2-2.28-.61-2.86-.41-.58-1.08-.86-2-.86-.75,0-1.34,.32-1.76,.96s-.62,1.57-.62,2.79,.21,2.13,.63,2.74,1.02,.91,1.8,.91Z"/><path class="d" d="M162.18,210.88l7.57-3.11-7.57-3.51v-2.66l11,5.49v1.58l-11,4.85v-2.65Z"/><path class="d" d="M127.45,264.55l-11-4.85v-1.58l11-5.49v2.66l-7.57,3.51,7.57,3.11v2.65Z"/><path class="d" d="M141.28,266.8h-3.38v-7.23c0-.89-.15-1.56-.45-2.01-.3-.45-.77-.67-1.41-.67-.86,0-1.49,.32-1.88,.95-.39,.63-.59,1.68-.59,3.13v5.82h-3.38v-12.38h2.58l.45,1.58h.19c.33-.57,.81-1.01,1.44-1.33,.63-.32,1.35-.48,2.16-.48,1.85,0,3.11,.61,3.76,1.82h.3c.33-.58,.82-1.02,1.47-1.34,.65-.32,1.38-.48,2.19-.48,1.4,0,2.46,.36,3.18,1.08s1.08,1.87,1.08,3.46v8.07h-3.39v-7.23c0-.89-.15-1.56-.45-2.01s-.77-.67-1.41-.67c-.83,0-1.45,.29-1.86,.89-.41,.59-.61,1.53-.61,2.81v6.21Z"/><path class="d" d="M158.06,267.02c-1.99,0-3.55-.55-4.67-1.65-1.12-1.1-1.68-2.66-1.68-4.67s.52-3.68,1.56-4.81,2.47-1.7,4.3-1.7,3.11,.5,4.09,1.5c.97,1,1.46,2.37,1.46,4.13v1.64h-7.98c.04,.96,.32,1.71,.85,2.25,.53,.54,1.28,.81,2.24,.81,.75,0,1.45-.08,2.12-.23s1.36-.4,2.08-.74v2.61c-.59,.29-1.22,.51-1.89,.66-.67,.14-1.49,.22-2.46,.22Zm-.48-10.43c-.72,0-1.28,.23-1.68,.68-.41,.45-.64,1.1-.7,1.93h4.74c-.01-.83-.23-1.48-.65-1.93s-.99-.68-1.71-.68Z"/><path class="d" d="M171.08,264.33c.59,0,1.3-.13,2.13-.39v2.51c-.84,.38-1.88,.56-3.1,.56-1.35,0-2.33-.34-2.95-1.02s-.92-1.71-.92-3.07v-5.97h-1.62v-1.43l1.86-1.13,.97-2.61h2.16v2.63h3.47v2.54h-3.47v5.97c0,.48,.13,.83,.4,1.06s.63,.34,1.07,.34Z"/><path class="d" d="M183.57,266.8l-.65-1.68h-.09c-.57,.72-1.15,1.21-1.75,1.49-.6,.28-1.39,.42-2.35,.42-1.19,0-2.12-.34-2.81-1.02-.68-.68-1.02-1.65-1.02-2.9s.46-2.28,1.38-2.91c.92-.62,2.3-.97,4.16-1.04l2.15-.07v-.54c0-1.25-.64-1.88-1.93-1.88-.99,0-2.15,.3-3.49,.9l-1.12-2.28c1.42-.75,3-1.12,4.74-1.12s2.93,.36,3.82,1.08,1.33,1.82,1.33,3.3v8.25h-2.36Zm-1-5.74l-1.31,.04c-.98,.03-1.71,.21-2.19,.53-.48,.33-.72,.82-.72,1.48,0,.95,.55,1.43,1.64,1.43,.78,0,1.41-.22,1.88-.67s.7-1.05,.7-1.79v-1.02Z"/><path class="d" d="M200.32,267.02c-3.85,0-5.78-2.12-5.78-6.34,0-2.1,.52-3.71,1.57-4.82s2.55-1.67,4.51-1.67c1.43,0,2.72,.28,3.85,.84l-1,2.61c-.53-.21-1.03-.39-1.48-.53-.46-.14-.92-.2-1.37-.2-1.76,0-2.64,1.25-2.64,3.74s.88,3.63,2.64,3.63c.65,0,1.25-.09,1.8-.26,.55-.17,1.11-.45,1.66-.81v2.89c-.55,.35-1.1,.59-1.66,.72s-1.26,.2-2.11,.2Z"/><path class="d" d="M218.38,266.8h-3.38v-7.23c0-1.79-.66-2.68-1.99-2.68-.94,0-1.63,.32-2.05,.96-.42,.64-.63,1.68-.63,3.12v5.82h-3.38v-17.23h3.38v3.51c0,.27-.03,.92-.08,1.93l-.08,1h.18c.75-1.21,1.95-1.82,3.59-1.82,1.45,0,2.56,.39,3.31,1.17,.75,.78,1.13,1.9,1.13,3.37v8.07Z"/><path class="d" d="M229.72,266.8l-.65-1.68h-.09c-.57,.72-1.15,1.21-1.75,1.49-.6,.28-1.39,.42-2.35,.42-1.19,0-2.12-.34-2.81-1.02-.68-.68-1.02-1.65-1.02-2.9s.46-2.28,1.38-2.91c.92-.62,2.3-.97,4.16-1.04l2.15-.07v-.54c0-1.25-.64-1.88-1.93-1.88-.99,0-2.15,.3-3.49,.9l-1.12-2.28c1.42-.75,3-1.12,4.74-1.12s2.93,.36,3.82,1.08,1.33,1.82,1.33,3.3v8.25h-2.36Zm-1-5.74l-1.31,.04c-.98,.03-1.71,.21-2.19,.53-.48,.33-.72,.82-.72,1.48,0,.95,.55,1.43,1.64,1.43,.78,0,1.41-.22,1.88-.67s.7-1.05,.7-1.79v-1.02Z"/><path class="d" d="M242.46,254.19c.46,0,.84,.03,1.14,.1l-.25,3.17c-.27-.07-.61-.11-1-.11-1.08,0-1.92,.28-2.52,.83-.6,.55-.9,1.33-.9,2.33v6.3h-3.38v-12.38h2.56l.5,2.08h.17c.38-.69,.9-1.25,1.56-1.68,.65-.42,1.36-.64,2.13-.64Z"/><path class="d" d="M254.49,263.13c0,1.27-.44,2.24-1.32,2.9-.88,.67-2.2,1-3.96,1-.9,0-1.67-.06-2.3-.18-.63-.12-1.23-.3-1.78-.54v-2.79c.63,.3,1.33,.54,2.12,.74s1.48,.3,2.08,.3c1.23,0,1.84-.35,1.84-1.06,0-.27-.08-.48-.24-.65-.16-.17-.44-.35-.84-.56-.4-.21-.93-.46-1.59-.74-.95-.4-1.65-.77-2.1-1.11-.45-.34-.77-.73-.97-1.17s-.3-.98-.3-1.62c0-1.1,.43-1.95,1.28-2.55,.85-.6,2.06-.9,3.63-.9s2.94,.33,4.35,.97l-1.02,2.44c-.62-.27-1.2-.48-1.74-.65s-1.09-.25-1.65-.25c-1,0-1.49,.27-1.49,.81,0,.3,.16,.56,.48,.79,.32,.22,1.02,.55,2.11,.99,.97,.39,1.68,.76,2.13,1.1,.45,.34,.78,.73,1,1.17,.21,.44,.32,.97,.32,1.58Z"/><path class="d" d="M262.73,267.02c-1.99,0-3.55-.55-4.67-1.65-1.12-1.1-1.68-2.66-1.68-4.67s.52-3.68,1.56-4.81,2.47-1.7,4.3-1.7,3.11,.5,4.09,1.5c.97,1,1.46,2.37,1.46,4.13v1.64h-7.98c.04,.96,.32,1.71,.85,2.25,.53,.54,1.28,.81,2.24,.81,.75,0,1.45-.08,2.12-.23s1.36-.4,2.08-.74v2.61c-.59,.29-1.22,.51-1.89,.66-.67,.14-1.49,.22-2.46,.22Zm-.48-10.43c-.72,0-1.28,.23-1.68,.68-.41,.45-.64,1.1-.7,1.93h4.74c-.01-.83-.23-1.48-.65-1.93s-.99-.68-1.71-.68Z"/><path class="d" d="M275.74,264.33c.59,0,1.3-.13,2.13-.39v2.51c-.84,.38-1.88,.56-3.1,.56-1.35,0-2.33-.34-2.95-1.02s-.92-1.71-.92-3.07v-5.97h-1.62v-1.43l1.86-1.13,.97-2.61h2.16v2.63h3.47v2.54h-3.47v5.97c0,.48,.13,.83,.4,1.06s.63,.34,1.07,.34Z"/><path class="d" d="M279.57,257.89v-2.42h11v2.42h-11Zm0,4.29v-2.42h11v2.42h-11Z"/><path class="d" d="M296.1,250.61l-.45,5.85h-2.18l-.45-5.85h3.09Zm4.67,0l-.45,5.85h-2.18l-.45-5.85h3.09Z"/><path class="d" d="M317.46,250.61v10.47c0,1.2-.27,2.24-.8,3.14-.54,.9-1.31,1.59-2.32,2.07-1.01,.48-2.21,.72-3.59,.72-2.08,0-3.7-.53-4.85-1.6-1.15-1.07-1.73-2.53-1.73-4.38v-10.43h3.42v9.91c0,1.25,.25,2.16,.75,2.75,.5,.58,1.33,.88,2.49,.88s1.94-.29,2.44-.88,.76-1.51,.76-2.76v-9.89h3.42Z"/><path class="d" d="M327.67,266.8h-3.43v-13.33h-4.4v-2.86h12.22v2.86h-4.4v13.33Z"/><path class="d" d="M337.93,266.8h-3.38v-16.19h9.28v2.81h-5.9v4.17h5.49v2.8h-5.49v6.4Z"/><path class="d" d="M345.64,262.11v-2.77h5.95v2.77h-5.95Z"/><path class="d" d="M358.75,250.4c1.55,0,2.8,.35,3.75,1.06,.95,.71,1.42,1.66,1.42,2.85,0,.83-.23,1.56-.69,2.21-.46,.65-1.2,1.22-2.21,1.73,1.21,.65,2.08,1.33,2.61,2.03s.79,1.48,.79,2.32c0,1.33-.52,2.4-1.56,3.21s-2.41,1.21-4.11,1.21-3.16-.38-4.17-1.13c-1.01-.75-1.52-1.82-1.52-3.2,0-.92,.25-1.74,.74-2.46,.49-.72,1.28-1.35,2.36-1.89-.92-.58-1.59-1.21-1.99-1.87s-.61-1.39-.61-2.18c0-1.16,.48-2.1,1.44-2.81,.96-.72,2.21-1.07,3.75-1.07Zm-2.52,12.09c0,.63,.22,1.13,.67,1.48,.44,.35,1.05,.53,1.82,.53,.85,0,1.48-.18,1.9-.55,.42-.37,.63-.85,.63-1.45,0-.49-.21-.96-.63-1.39s-1.09-.89-2.03-1.38c-1.57,.72-2.36,1.64-2.36,2.75Zm2.5-9.59c-.58,0-1.05,.15-1.41,.45s-.54,.7-.54,1.2c0,.44,.14,.84,.43,1.19,.28,.35,.8,.71,1.54,1.08,.72-.34,1.23-.69,1.52-1.04s.43-.76,.43-1.23c0-.51-.18-.91-.55-1.21-.37-.3-.84-.44-1.42-.44Z"/><path class="d" d="M369.77,250.61l-.45,5.85h-2.18l-.45-5.85h3.09Zm4.67,0l-.45,5.85h-2.18l-.45-5.85h3.09Z"/><path class="d" d="M376.89,261.91l7.57-3.11-7.57-3.51v-2.66l11,5.49v1.58l-11,4.85v-2.65Z"/><path class="d" d="M127.45,315.58l-11-4.85v-1.58l11-5.49v2.66l-7.57,3.51,7.57,3.11v2.65Z"/><path class="d" d="M141.28,317.83h-3.38v-7.23c0-.89-.15-1.56-.45-2.01-.3-.45-.77-.67-1.41-.67-.86,0-1.49,.32-1.88,.95-.39,.63-.59,1.68-.59,3.13v5.82h-3.38v-12.38h2.58l.45,1.58h.19c.33-.57,.81-1.01,1.44-1.33,.63-.32,1.35-.48,2.16-.48,1.85,0,3.11,.61,3.76,1.82h.3c.33-.58,.82-1.02,1.47-1.34,.65-.32,1.38-.48,2.19-.48,1.4,0,2.46,.36,3.18,1.08s1.08,1.87,1.08,3.46v8.07h-3.39v-7.23c0-.89-.15-1.56-.45-2.01s-.77-.67-1.41-.67c-.83,0-1.45,.29-1.86,.89-.41,.59-.61,1.53-.61,2.81v6.21Z"/><path class="d" d="M158.06,318.05c-1.99,0-3.55-.55-4.67-1.65-1.12-1.1-1.68-2.66-1.68-4.67s.52-3.68,1.56-4.81,2.47-1.7,4.3-1.7,3.11,.5,4.09,1.5c.97,1,1.46,2.37,1.46,4.13v1.64h-7.98c.04,.96,.32,1.71,.85,2.25,.53,.54,1.28,.81,2.24,.81,.75,0,1.45-.08,2.12-.23s1.36-.4,2.08-.74v2.61c-.59,.29-1.22,.51-1.89,.66-.67,.14-1.49,.22-2.46,.22Zm-.48-10.43c-.72,0-1.28,.23-1.68,.68-.41,.45-.64,1.1-.7,1.93h4.74c-.01-.83-.23-1.48-.65-1.93s-.99-.68-1.71-.68Z"/><path class="d" d="M171.08,315.36c.59,0,1.3-.13,2.13-.39v2.51c-.84,.38-1.88,.56-3.1,.56-1.35,0-2.33-.34-2.95-1.02s-.92-1.71-.92-3.07v-5.97h-1.62v-1.43l1.86-1.13,.97-2.61h2.16v2.63h3.47v2.54h-3.47v5.97c0,.48,.13,.83,.4,1.06s.63,.34,1.07,.34Z"/><path class="d" d="M183.57,317.83l-.65-1.68h-.09c-.57,.72-1.15,1.21-1.75,1.49-.6,.28-1.39,.42-2.35,.42-1.19,0-2.12-.34-2.81-1.02-.68-.68-1.02-1.65-1.02-2.9s.46-2.28,1.38-2.91c.92-.62,2.3-.97,4.16-1.04l2.15-.07v-.54c0-1.25-.64-1.88-1.93-1.88-.99,0-2.15,.3-3.49,.9l-1.12-2.28c1.42-.75,3-1.12,4.74-1.12s2.93,.36,3.82,1.08,1.33,1.82,1.33,3.3v8.25h-2.36Zm-1-5.74l-1.31,.04c-.98,.03-1.71,.21-2.19,.53-.48,.33-.72,.82-.72,1.48,0,.95,.55,1.43,1.64,1.43,.78,0,1.41-.22,1.88-.67s.7-1.05,.7-1.79v-1.02Z"/><path class="d" d="M206.72,317.83h-3.38v-7.23c0-1.79-.66-2.68-1.99-2.68-.94,0-1.63,.32-2.05,.96-.42,.64-.63,1.68-.63,3.12v5.82h-3.38v-17.23h3.38v3.51c0,.27-.03,.92-.08,1.93l-.08,1h.18c.75-1.21,1.95-1.82,3.59-1.82,1.45,0,2.56,.39,3.31,1.17,.75,.78,1.13,1.9,1.13,3.37v8.07Z"/><path class="d" d="M215.41,315.36c.59,0,1.3-.13,2.13-.39v2.51c-.84,.38-1.88,.56-3.1,.56-1.35,0-2.33-.34-2.95-1.02s-.92-1.71-.92-3.07v-5.97h-1.62v-1.43l1.86-1.13,.97-2.61h2.16v2.63h3.47v2.54h-3.47v5.97c0,.48,.13,.83,.4,1.06s.63,.34,1.07,.34Z"/><path class="d" d="M225.25,315.36c.59,0,1.3-.13,2.13-.39v2.51c-.84,.38-1.88,.56-3.1,.56-1.35,0-2.33-.34-2.95-1.02s-.92-1.71-.92-3.07v-5.97h-1.62v-1.43l1.86-1.13,.97-2.61h2.16v2.63h3.47v2.54h-3.47v5.97c0,.48,.13,.83,.4,1.06s.63,.34,1.07,.34Z"/><path class="d" d="M236.68,318.05c-1.45,0-2.59-.53-3.42-1.58h-.18c.12,1.03,.18,1.63,.18,1.79v5.02h-3.38v-17.83h2.75l.48,1.61h.15c.79-1.23,1.96-1.84,3.51-1.84,1.46,0,2.61,.57,3.43,1.69,.83,1.13,1.24,2.7,1.24,4.71,0,1.32-.19,2.47-.58,3.44-.39,.97-.94,1.72-1.66,2.23-.72,.51-1.56,.76-2.52,.76Zm-1-10.13c-.83,0-1.44,.26-1.83,.77s-.58,1.36-.6,2.54v.37c0,1.33,.2,2.28,.59,2.86,.39,.58,1.02,.86,1.88,.86,1.51,0,2.27-1.25,2.27-3.74,0-1.22-.19-2.13-.56-2.74-.37-.61-.96-.91-1.75-.91Z"/><path class="d" d="M243.14,313.13v-2.77h5.95v2.77h-5.95Z"/><path class="d" d="M257.13,318.05c-1.99,0-3.55-.55-4.67-1.65-1.12-1.1-1.68-2.66-1.68-4.67s.52-3.68,1.56-4.81,2.47-1.7,4.3-1.7,3.11,.5,4.09,1.5c.97,1,1.46,2.37,1.46,4.13v1.64h-7.98c.04,.96,.32,1.71,.85,2.25,.53,.54,1.28,.81,2.24,.81,.75,0,1.45-.08,2.12-.23s1.36-.4,2.08-.74v2.61c-.59,.29-1.22,.51-1.89,.66-.67,.14-1.49,.22-2.46,.22Zm-.48-10.43c-.72,0-1.28,.23-1.68,.68-.41,.45-.64,1.1-.7,1.93h4.74c-.01-.83-.23-1.48-.65-1.93s-.99-.68-1.71-.68Z"/><path class="d" d="M268.85,318.05c-1.46,0-2.61-.56-3.43-1.69-.83-1.13-1.24-2.69-1.24-4.7s.42-3.6,1.27-4.74c.85-1.14,2-1.71,3.47-1.71,.78,0,1.46,.15,2.05,.44,.58,.29,1.1,.75,1.54,1.37h.09l.3-1.58h2.86v17.83h-3.39v-5.19c0-.45,.05-1.07,.14-1.86h-.14c-.36,.6-.84,1.05-1.44,1.36-.6,.31-1.29,.46-2.07,.46Zm1.21-2.65c.86,0,1.48-.25,1.88-.74,.4-.49,.62-1.35,.65-2.57v-.41c0-1.33-.2-2.28-.61-2.86-.41-.58-1.07-.86-1.98-.86-1.59,0-2.38,1.25-2.38,3.74,0,1.24,.2,2.17,.59,2.78,.39,.61,1.01,.92,1.84,.92Z"/><path class="d" d="M288.05,317.83l-.45-1.58h-.18c-.36,.58-.88,1.02-1.54,1.33s-1.42,.47-2.27,.47c-1.46,0-2.55-.39-3.29-1.17-.74-.78-1.11-1.9-1.11-3.36v-8.07h3.38v7.23c0,.89,.16,1.56,.48,2.01,.32,.45,.82,.67,1.52,.67,.95,0,1.63-.32,2.05-.95s.63-1.68,.63-3.14v-5.83h3.38v12.38h-2.59Z"/><path class="d" d="M294.04,302.25c0-1.1,.61-1.65,1.84-1.65s1.84,.55,1.84,1.65c0,.52-.15,.93-.46,1.22-.31,.29-.77,.44-1.38,.44-1.23,0-1.84-.55-1.84-1.66Zm3.52,15.58h-3.38v-12.38h3.38v12.38Z"/><path class="d" d="M304.05,317.83l-4.72-12.38h3.53l2.39,7.05c.27,.89,.43,1.74,.5,2.54h.07c.04-.71,.2-1.55,.5-2.54l2.38-7.05h3.53l-4.72,12.38h-3.47Z"/><path class="d" d="M313.21,308.91v-2.42h11v2.42h-11Zm0,4.29v-2.42h11v2.42h-11Z"/><path class="d" d="M329.74,301.64l-.45,5.85h-2.18l-.45-5.85h3.09Zm4.67,0l-.45,5.85h-2.18l-.45-5.85h3.09Z"/><path class="d" d="M351.01,317.83h-3.92l-3.76-6.12-3.77,6.12h-3.68l5.37-8.35-5.03-7.84h3.79l3.49,5.82,3.42-5.82h3.7l-5.08,8.03,5.47,8.16Z"/><path class="d" d="M351.69,313.13v-2.77h5.95v2.77h-5.95Z"/><path class="d" d="M373.52,301.64v10.47c0,1.2-.27,2.24-.8,3.14-.54,.9-1.31,1.59-2.32,2.07-1.01,.48-2.21,.72-3.59,.72-2.08,0-3.7-.53-4.85-1.6-1.15-1.07-1.73-2.53-1.73-4.38v-10.43h3.42v9.91c0,1.25,.25,2.16,.75,2.75,.5,.58,1.33,.88,2.49,.88s1.94-.29,2.44-.88,.76-1.51,.76-2.76v-9.89h3.42Z"/><path class="d" d="M387.39,317.83l-1.17-3.85h-5.9l-1.17,3.85h-3.7l5.71-16.25h4.2l5.74,16.25h-3.7Zm-1.99-6.73c-1.08-3.49-1.7-5.47-1.83-5.92s-.23-.82-.29-1.08c-.24,.94-.94,3.28-2.09,7.01h4.22Z"/><path class="d" d="M391.77,313.13v-2.77h5.95v2.77h-5.95Z"/><path class="d" d="M407.3,304.26c-1.29,0-2.29,.49-3,1.46-.71,.97-1.06,2.32-1.06,4.06,0,3.61,1.35,5.41,4.06,5.41,1.14,0,2.51-.28,4.13-.85v2.88c-1.33,.55-2.81,.83-4.45,.83-2.36,0-4.16-.71-5.4-2.14-1.25-1.43-1.87-3.48-1.87-6.15,0-1.68,.31-3.16,.92-4.42,.61-1.27,1.49-2.24,2.64-2.91,1.15-.67,2.49-1.01,4.04-1.01s3.15,.38,4.74,1.14l-1.11,2.79c-.61-.29-1.21-.54-1.83-.75-.61-.21-1.21-.32-1.8-.32Z"/><path class="d" d="M425.86,311.61c0,2.02-.53,3.59-1.59,4.73-1.06,1.14-2.54,1.71-4.44,1.71-1.19,0-2.24-.26-3.15-.78-.91-.52-1.61-1.27-2.09-2.24-.49-.97-.73-2.11-.73-3.41,0-2.02,.53-3.59,1.58-4.72,1.05-1.12,2.54-1.68,4.45-1.68,1.19,0,2.24,.26,3.14,.78s1.61,1.26,2.09,2.23,.73,2.1,.73,3.4Zm-8.56,0c0,1.23,.2,2.15,.6,2.78,.4,.63,1.06,.94,1.97,.94s1.55-.31,1.94-.94c.39-.62,.59-1.55,.59-2.79s-.2-2.14-.6-2.76c-.4-.61-1.05-.92-1.96-.92s-1.55,.3-1.95,.91-.6,1.53-.6,2.76Z"/><path class="d" d="M439.74,317.83h-3.38v-7.23c0-.89-.15-1.56-.45-2.01-.3-.45-.77-.67-1.41-.67-.86,0-1.49,.32-1.88,.95-.39,.63-.59,1.68-.59,3.13v5.82h-3.38v-12.38h2.58l.45,1.58h.19c.33-.57,.81-1.01,1.44-1.33,.63-.32,1.35-.48,2.16-.48,1.85,0,3.11,.61,3.76,1.82h.3c.33-.58,.82-1.02,1.47-1.34,.65-.32,1.38-.48,2.19-.48,1.4,0,2.46,.36,3.18,1.08s1.08,1.87,1.08,3.46v8.07h-3.39v-7.23c0-.89-.15-1.56-.45-2.01s-.77-.67-1.41-.67c-.83,0-1.45,.29-1.86,.89-.41,.59-.61,1.53-.61,2.81v6.21Z"/><path class="d" d="M457.72,318.05c-1.45,0-2.59-.53-3.42-1.58h-.18c.12,1.03,.18,1.63,.18,1.79v5.02h-3.38v-17.83h2.75l.48,1.61h.15c.79-1.23,1.96-1.84,3.51-1.84,1.46,0,2.61,.57,3.43,1.69,.83,1.13,1.24,2.7,1.24,4.71,0,1.32-.19,2.47-.58,3.44-.39,.97-.94,1.72-1.66,2.23-.72,.51-1.56,.76-2.52,.76Zm-1-10.13c-.83,0-1.44,.26-1.83,.77s-.58,1.36-.6,2.54v.37c0,1.33,.2,2.28,.59,2.86,.39,.58,1.02,.86,1.88,.86,1.51,0,2.27-1.25,2.27-3.74,0-1.22-.19-2.13-.56-2.74-.37-.61-.96-.91-1.75-.91Z"/><path class="d" d="M473.13,317.83l-.65-1.68h-.09c-.57,.72-1.15,1.21-1.75,1.49-.6,.28-1.39,.42-2.35,.42-1.19,0-2.12-.34-2.81-1.02-.68-.68-1.02-1.65-1.02-2.9s.46-2.28,1.38-2.91c.92-.62,2.3-.97,4.16-1.04l2.15-.07v-.54c0-1.25-.64-1.88-1.93-1.88-.99,0-2.15,.3-3.49,.9l-1.12-2.28c1.42-.75,3-1.12,4.74-1.12s2.93,.36,3.82,1.08,1.33,1.82,1.33,3.3v8.25h-2.36Zm-1-5.74l-1.31,.04c-.98,.03-1.71,.21-2.19,.53-.48,.33-.72,.82-.72,1.48,0,.95,.55,1.43,1.64,1.43,.78,0,1.41-.22,1.88-.67s.7-1.05,.7-1.79v-1.02Z"/><path class="d" d="M484.18,315.36c.59,0,1.3-.13,2.13-.39v2.51c-.84,.38-1.88,.56-3.1,.56-1.35,0-2.33-.34-2.95-1.02s-.92-1.71-.92-3.07v-5.97h-1.62v-1.43l1.86-1.13,.97-2.61h2.16v2.63h3.47v2.54h-3.47v5.97c0,.48,.13,.83,.4,1.06s.63,.34,1.07,.34Z"/><path class="d" d="M488.67,302.25c0-1.1,.61-1.65,1.84-1.65s1.84,.55,1.84,1.65c0,.52-.15,.93-.46,1.22-.31,.29-.77,.44-1.38,.44-1.23,0-1.84-.55-1.84-1.66Zm3.52,15.58h-3.38v-12.38h3.38v12.38Z"/><path class="d" d="M502.62,305.21c1.46,0,2.61,.57,3.43,1.71,.83,1.14,1.24,2.7,1.24,4.69s-.43,3.63-1.28,4.75-2.01,1.68-3.48,1.68-2.59-.53-3.42-1.58h-.23l-.56,1.36h-2.58v-17.23h3.38v4.01c0,.51-.04,1.33-.13,2.45h.13c.79-1.23,1.96-1.84,3.51-1.84Zm-1.08,2.7c-.83,0-1.44,.26-1.83,.77s-.58,1.36-.6,2.54v.37c0,1.33,.2,2.28,.59,2.86,.39,.58,1.02,.86,1.88,.86,.69,0,1.25-.32,1.66-.96,.41-.64,.61-1.57,.61-2.78s-.21-2.13-.62-2.74c-.41-.61-.98-.91-1.69-.91Z"/><path class="d" d="M513.46,317.83h-3.38v-17.23h3.38v17.23Z"/><path class="d" d="M522.61,318.05c-1.99,0-3.55-.55-4.67-1.65-1.12-1.1-1.68-2.66-1.68-4.67s.52-3.68,1.56-4.81,2.47-1.7,4.3-1.7,3.11,.5,4.09,1.5c.97,1,1.46,2.37,1.46,4.13v1.64h-7.98c.04,.96,.32,1.71,.85,2.25,.53,.54,1.28,.81,2.24,.81,.75,0,1.45-.08,2.12-.23s1.36-.4,2.08-.74v2.61c-.59,.29-1.22,.51-1.89,.66-.67,.14-1.49,.22-2.46,.22Zm-.48-10.43c-.72,0-1.28,.23-1.68,.68-.41,.45-.64,1.1-.7,1.93h4.74c-.01-.83-.23-1.48-.65-1.93s-.99-.68-1.71-.68Z"/><path class="d" d="M533.19,301.64l-.45,5.85h-2.18l-.45-5.85h3.09Zm4.67,0l-.45,5.85h-2.18l-.45-5.85h3.09Z"/><path class="d" d="M552.03,318.05c-3.85,0-5.78-2.12-5.78-6.34,0-2.1,.52-3.71,1.57-4.82s2.55-1.67,4.51-1.67c1.43,0,2.72,.28,3.85,.84l-1,2.61c-.53-.21-1.03-.39-1.48-.53-.46-.14-.92-.2-1.37-.2-1.76,0-2.64,1.25-2.64,3.74s.88,3.63,2.64,3.63c.65,0,1.25-.09,1.8-.26,.55-.17,1.11-.45,1.66-.81v2.89c-.55,.35-1.1,.59-1.66,.72s-1.26,.2-2.11,.2Z"/><path class="d" d="M569.91,311.61c0,2.02-.53,3.59-1.59,4.73-1.06,1.14-2.54,1.71-4.44,1.71-1.19,0-2.24-.26-3.15-.78-.91-.52-1.61-1.27-2.09-2.24-.49-.97-.73-2.11-.73-3.41,0-2.02,.53-3.59,1.58-4.72,1.05-1.12,2.54-1.68,4.45-1.68,1.19,0,2.24,.26,3.14,.78s1.61,1.26,2.09,2.23,.73,2.1,.73,3.4Zm-8.56,0c0,1.23,.2,2.15,.6,2.78,.4,.63,1.06,.94,1.97,.94s1.55-.31,1.94-.94c.39-.62,.59-1.55,.59-2.79s-.2-2.14-.6-2.76c-.4-.61-1.05-.92-1.96-.92s-1.55,.3-1.95,.91-.6,1.53-.6,2.76Z"/><path class="d" d="M584.13,317.83h-3.38v-7.23c0-.89-.16-1.56-.48-2.01s-.82-.67-1.52-.67c-.94,0-1.63,.32-2.05,.95-.42,.63-.63,1.68-.63,3.14v5.82h-3.38v-12.38h2.58l.45,1.58h.19c.38-.6,.89-1.05,1.56-1.36,.66-.31,1.41-.46,2.25-.46,1.44,0,2.53,.39,3.28,1.17,.75,.78,1.12,1.9,1.12,3.37v8.07Z"/><path class="d" d="M586.51,313.13v-2.77h5.95v2.77h-5.95Z"/><path class="d" d="M98.9,366.38c.59,0,1.3-.13,2.13-.39v2.51c-.84,.38-1.88,.56-3.1,.56-1.35,0-2.33-.34-2.95-1.02s-.92-1.71-.92-3.07v-5.97h-1.62v-1.43l1.86-1.13,.97-2.61h2.16v2.63h3.47v2.54h-3.47v5.97c0,.48,.13,.83,.4,1.06s.63,.34,1.07,.34Z"/><path class="d" d="M109.13,369.07c-1.99,0-3.55-.55-4.67-1.65-1.12-1.1-1.68-2.66-1.68-4.67s.52-3.68,1.56-4.81,2.47-1.7,4.3-1.7,3.11,.5,4.09,1.5c.97,1,1.46,2.37,1.46,4.13v1.64h-7.98c.04,.96,.32,1.71,.85,2.25,.53,.54,1.28,.81,2.24,.81,.75,0,1.45-.08,2.12-.23s1.36-.4,2.08-.74v2.61c-.59,.29-1.22,.51-1.89,.66-.67,.14-1.49,.22-2.46,.22Zm-.48-10.43c-.72,0-1.28,.23-1.68,.68-.41,.45-.64,1.1-.7,1.93h4.74c-.01-.83-.23-1.48-.65-1.93s-.99-.68-1.71-.68Z"/><path class="d" d="M128.36,368.85h-3.38v-7.23c0-.89-.16-1.56-.48-2.01s-.82-.67-1.52-.67c-.94,0-1.63,.32-2.05,.95-.42,.63-.63,1.68-.63,3.14v5.82h-3.38v-12.38h2.58l.45,1.58h.19c.38-.6,.89-1.05,1.56-1.36,.66-.31,1.41-.46,2.25-.46,1.44,0,2.53,.39,3.28,1.17,.75,.78,1.12,1.9,1.12,3.37v8.07Z"/><path class="d" d="M137.05,366.38c.59,0,1.3-.13,2.13-.39v2.51c-.84,.38-1.88,.56-3.1,.56-1.35,0-2.33-.34-2.95-1.02s-.92-1.71-.92-3.07v-5.97h-1.62v-1.43l1.86-1.13,.97-2.61h2.16v2.63h3.47v2.54h-3.47v5.97c0,.48,.13,.83,.4,1.06s.63,.34,1.07,.34Z"/><path class="d" d="M140.88,359.93v-2.42h11v2.42h-11Zm0,4.29v-2.42h11v2.42h-11Z"/><path class="d" d="M157.41,352.66l-.45,5.85h-2.18l-.45-5.85h3.09Zm4.67,0l-.45,5.85h-2.18l-.45-5.85h3.09Z"/><path class="d" d="M165.59,368.85v-16.19h3.43v16.19h-3.43Z"/><path class="d" d="M182.42,368.85h-9.32v-16.19h9.32v2.81h-5.89v3.55h5.48v2.81h-5.48v4.17h5.89v2.83Z"/><path class="d" d="M184.74,359.93v-2.42h11v2.42h-11Zm0,4.29v-2.42h11v2.42h-11Z"/><path class="d" d="M204.08,369.07c-1.99,0-3.55-.55-4.67-1.65-1.12-1.1-1.68-2.66-1.68-4.67s.52-3.68,1.56-4.81,2.47-1.7,4.3-1.7,3.11,.5,4.09,1.5c.97,1,1.46,2.37,1.46,4.13v1.64h-7.98c.04,.96,.32,1.71,.85,2.25,.53,.54,1.28,.81,2.24,.81,.75,0,1.45-.08,2.12-.23s1.36-.4,2.08-.74v2.61c-.59,.29-1.22,.51-1.89,.66-.67,.14-1.49,.22-2.46,.22Zm-.48-10.43c-.72,0-1.28,.23-1.68,.68-.41,.45-.64,1.1-.7,1.93h4.74c-.01-.83-.23-1.48-.65-1.93s-.99-.68-1.71-.68Z"/><path class="d" d="M215.8,369.07c-1.45,0-2.6-.56-3.43-1.69-.83-1.13-1.25-2.69-1.25-4.7s.42-3.61,1.27-4.74c.85-1.13,2.01-1.7,3.49-1.7,1.56,0,2.75,.61,3.57,1.82h.11c-.17-.92-.25-1.75-.25-2.47v-3.96h3.39v17.23h-2.59l-.65-1.61h-.14c-.77,1.22-1.94,1.83-3.51,1.83Zm1.18-2.69c.86,0,1.5-.25,1.9-.75,.4-.5,.62-1.35,.66-2.56v-.37c0-1.33-.2-2.28-.61-2.86-.41-.58-1.08-.86-2-.86-.75,0-1.34,.32-1.76,.96s-.62,1.57-.62,2.79,.21,2.13,.63,2.74,1.02,.91,1.8,.91Z"/><path class="d" d="M237,356.47v1.72l-1.94,.5c.35,.55,.53,1.17,.53,1.86,0,1.33-.46,2.36-1.39,3.11-.93,.74-2.21,1.11-3.86,1.11l-.61-.03-.5-.06c-.35,.27-.52,.56-.52,.89,0,.49,.62,.73,1.86,.73h2.1c1.36,0,2.39,.29,3.11,.88,.71,.58,1.07,1.44,1.07,2.57,0,1.45-.6,2.57-1.81,3.37s-2.94,1.2-5.2,1.2c-1.73,0-3.05-.3-3.96-.9-.91-.6-1.37-1.44-1.37-2.53,0-.75,.23-1.37,.7-1.87,.47-.5,1.15-.86,2.05-1.07-.35-.15-.65-.39-.91-.73-.26-.34-.39-.69-.39-1.07,0-.47,.14-.87,.41-1.18,.27-.31,.67-.62,1.18-.92-.65-.28-1.16-.73-1.54-1.35-.38-.62-.57-1.35-.57-2.19,0-1.35,.44-2.4,1.32-3.13,.88-.74,2.13-1.11,3.76-1.11,.35,0,.76,.03,1.23,.09,.48,.06,.78,.11,.91,.14h4.32Zm-9.56,14.13c0,.47,.22,.83,.67,1.1,.45,.27,1.07,.4,1.88,.4,1.21,0,2.16-.17,2.85-.5s1.03-.79,1.03-1.36c0-.46-.2-.79-.61-.96-.41-.18-1.03-.27-1.88-.27h-1.75c-.62,0-1.14,.15-1.56,.44-.42,.29-.63,.68-.63,1.16Zm1.23-10.08c0,.67,.15,1.2,.46,1.59,.31,.39,.77,.59,1.4,.59s1.1-.2,1.4-.59c.29-.39,.44-.92,.44-1.59,0-1.49-.61-2.24-1.84-2.24s-1.86,.75-1.86,2.24Z"/><path class="d" d="M244.64,369.07c-1.99,0-3.55-.55-4.67-1.65-1.12-1.1-1.68-2.66-1.68-4.67s.52-3.68,1.56-4.81,2.47-1.7,4.3-1.7,3.11,.5,4.09,1.5c.97,1,1.46,2.37,1.46,4.13v1.64h-7.98c.04,.96,.32,1.71,.85,2.25,.53,.54,1.28,.81,2.24,.81,.75,0,1.45-.08,2.12-.23s1.36-.4,2.08-.74v2.61c-.59,.29-1.22,.51-1.89,.66-.67,.14-1.49,.22-2.46,.22Zm-.48-10.43c-.72,0-1.28,.23-1.68,.68-.41,.45-.64,1.1-.7,1.93h4.74c-.01-.83-.23-1.48-.65-1.93s-.99-.68-1.71-.68Z"/><path class="d" d="M255.23,352.66l-.45,5.85h-2.18l-.45-5.85h3.09Zm4.67,0l-.45,5.85h-2.18l-.45-5.85h3.09Z"/><path class="d" d="M262.35,363.95l7.57-3.11-7.57-3.51v-2.66l11,5.49v1.58l-11,4.85v-2.65Z"/><path class="d" d="M127.45,417.62l-11-4.85v-1.58l11-5.49v2.66l-7.57,3.51,7.57,3.11v2.65Z"/><path class="d" d="M141.28,419.87h-3.38v-7.23c0-.89-.15-1.56-.45-2.01-.3-.45-.77-.67-1.41-.67-.86,0-1.49,.32-1.88,.95-.39,.63-.59,1.68-.59,3.13v5.82h-3.38v-12.38h2.58l.45,1.58h.19c.33-.57,.81-1.01,1.44-1.33,.63-.32,1.35-.48,2.16-.48,1.85,0,3.11,.61,3.76,1.82h.3c.33-.58,.82-1.02,1.47-1.34,.65-.32,1.38-.48,2.19-.48,1.4,0,2.46,.36,3.18,1.08s1.08,1.87,1.08,3.46v8.07h-3.39v-7.23c0-.89-.15-1.56-.45-2.01s-.77-.67-1.41-.67c-.83,0-1.45,.29-1.86,.89-.41,.59-.61,1.53-.61,2.81v6.21Z"/><path class="d" d="M158.06,420.09c-1.99,0-3.55-.55-4.67-1.65-1.12-1.1-1.68-2.66-1.68-4.67s.52-3.68,1.56-4.81,2.47-1.7,4.3-1.7,3.11,.5,4.09,1.5c.97,1,1.46,2.37,1.46,4.13v1.64h-7.98c.04,.96,.32,1.71,.85,2.25,.53,.54,1.28,.81,2.24,.81,.75,0,1.45-.08,2.12-.23s1.36-.4,2.08-.74v2.61c-.59,.29-1.22,.51-1.89,.66-.67,.14-1.49,.22-2.46,.22Zm-.48-10.43c-.72,0-1.28,.23-1.68,.68-.41,.45-.64,1.1-.7,1.93h4.74c-.01-.83-.23-1.48-.65-1.93s-.99-.68-1.71-.68Z"/><path class="d" d="M171.08,417.4c.59,0,1.3-.13,2.13-.39v2.51c-.84,.38-1.88,.56-3.1,.56-1.35,0-2.33-.34-2.95-1.02s-.92-1.71-.92-3.07v-5.97h-1.62v-1.43l1.86-1.13,.97-2.61h2.16v2.63h3.47v2.54h-3.47v5.97c0,.48,.13,.83,.4,1.06s.63,.34,1.07,.34Z"/><path class="d" d="M183.57,419.87l-.65-1.68h-.09c-.57,.72-1.15,1.21-1.75,1.49-.6,.28-1.39,.42-2.35,.42-1.19,0-2.12-.34-2.81-1.02-.68-.68-1.02-1.65-1.02-2.9s.46-2.28,1.38-2.91c.92-.62,2.3-.97,4.16-1.04l2.15-.07v-.54c0-1.25-.64-1.88-1.93-1.88-.99,0-2.15,.3-3.49,.9l-1.12-2.28c1.42-.75,3-1.12,4.74-1.12s2.93,.36,3.82,1.08,1.33,1.82,1.33,3.3v8.25h-2.36Zm-1-5.74l-1.31,.04c-.98,.03-1.71,.21-2.19,.53-.48,.33-.72,.82-.72,1.48,0,.95,.55,1.43,1.64,1.43,.78,0,1.41-.22,1.88-.67s.7-1.05,.7-1.79v-1.02Z"/><path class="d" d="M206.72,419.87h-3.38v-7.23c0-.89-.16-1.56-.48-2.01s-.82-.67-1.52-.67c-.94,0-1.63,.32-2.05,.95-.42,.63-.63,1.68-.63,3.14v5.82h-3.38v-12.38h2.58l.45,1.58h.19c.38-.6,.89-1.05,1.56-1.36,.66-.31,1.41-.46,2.25-.46,1.44,0,2.53,.39,3.28,1.17,.75,.78,1.12,1.9,1.12,3.37v8.07Z"/><path class="d" d="M218.06,419.87l-.65-1.68h-.09c-.57,.72-1.15,1.21-1.75,1.49-.6,.28-1.39,.42-2.35,.42-1.19,0-2.12-.34-2.81-1.02-.68-.68-1.02-1.65-1.02-2.9s.46-2.28,1.38-2.91c.92-.62,2.3-.97,4.16-1.04l2.15-.07v-.54c0-1.25-.64-1.88-1.93-1.88-.99,0-2.15,.3-3.49,.9l-1.12-2.28c1.42-.75,3-1.12,4.74-1.12s2.93,.36,3.82,1.08,1.33,1.82,1.33,3.3v8.25h-2.36Zm-1-5.74l-1.31,.04c-.98,.03-1.71,.21-2.19,.53-.48,.33-.72,.82-.72,1.48,0,.95,.55,1.43,1.64,1.43,.78,0,1.41-.22,1.88-.67s.7-1.05,.7-1.79v-1.02Z"/><path class="d" d="M234.98,419.87h-3.38v-7.23c0-.89-.15-1.56-.45-2.01-.3-.45-.77-.67-1.41-.67-.86,0-1.49,.32-1.88,.95-.39,.63-.59,1.68-.59,3.13v5.82h-3.38v-12.38h2.58l.45,1.58h.19c.33-.57,.81-1.01,1.44-1.33,.63-.32,1.35-.48,2.16-.48,1.85,0,3.11,.61,3.76,1.82h.3c.33-.58,.82-1.02,1.47-1.34,.65-.32,1.38-.48,2.19-.48,1.4,0,2.46,.36,3.18,1.08s1.08,1.87,1.08,3.46v8.07h-3.39v-7.23c0-.89-.15-1.56-.45-2.01s-.77-.67-1.41-.67c-.83,0-1.45,.29-1.86,.89-.41,.59-.61,1.53-.61,2.81v6.21Z"/><path class="d" d="M251.76,420.09c-1.99,0-3.55-.55-4.67-1.65-1.12-1.1-1.68-2.66-1.68-4.67s.52-3.68,1.56-4.81,2.47-1.7,4.3-1.7,3.11,.5,4.09,1.5c.97,1,1.46,2.37,1.46,4.13v1.64h-7.98c.04,.96,.32,1.71,.85,2.25,.53,.54,1.28,.81,2.24,.81,.75,0,1.45-.08,2.12-.23s1.36-.4,2.08-.74v2.61c-.59,.29-1.22,.51-1.89,.66-.67,.14-1.49,.22-2.46,.22Zm-.48-10.43c-.72,0-1.28,.23-1.68,.68-.41,.45-.64,1.1-.7,1.93h4.74c-.01-.83-.23-1.48-.65-1.93s-.99-.68-1.71-.68Z"/><path class="d" d="M258.76,410.96v-2.42h11v2.42h-11Zm0,4.29v-2.42h11v2.42h-11Z"/><path class="d" d="M275.29,403.68l-.45,5.85h-2.18l-.45-5.85h3.09Zm4.67,0l-.45,5.85h-2.18l-.45-5.85h3.09Z"/><path class="d" d="M286.16,419.87l-4.72-12.38h3.53l2.39,7.05c.27,.89,.43,1.74,.5,2.54h.07c.04-.71,.2-1.55,.5-2.54l2.38-7.05h3.53l-4.72,12.38h-3.47Z"/><path class="d" d="M295.97,404.29c0-1.1,.61-1.65,1.84-1.65s1.84,.55,1.84,1.65c0,.52-.15,.93-.46,1.22-.31,.29-.77,.44-1.38,.44-1.23,0-1.84-.55-1.84-1.66Zm3.52,15.58h-3.38v-12.38h3.38v12.38Z"/><path class="d" d="M308.63,420.09c-1.99,0-3.55-.55-4.67-1.65-1.12-1.1-1.68-2.66-1.68-4.67s.52-3.68,1.56-4.81,2.47-1.7,4.3-1.7,3.11,.5,4.09,1.5c.97,1,1.46,2.37,1.46,4.13v1.64h-7.98c.04,.96,.32,1.71,.85,2.25,.53,.54,1.28,.81,2.24,.81,.75,0,1.45-.08,2.12-.23s1.36-.4,2.08-.74v2.61c-.59,.29-1.22,.51-1.89,.66-.67,.14-1.49,.22-2.46,.22Zm-.48-10.43c-.72,0-1.28,.23-1.68,.68-.41,.45-.64,1.1-.7,1.93h4.74c-.01-.83-.23-1.48-.65-1.93s-.99-.68-1.71-.68Z"/><path class="d" d="M326.6,419.87l-.95-4.33-1.28-5.47h-.08l-2.26,9.8h-3.63l-3.52-12.38h3.37l1.43,5.48c.23,.98,.46,2.34,.7,4.06h.07c.03-.56,.16-1.45,.39-2.67l.18-.94,1.53-5.94h3.72l1.45,5.94c.03,.16,.08,.4,.14,.72,.06,.32,.12,.66,.18,1.01,.06,.36,.11,.71,.16,1.05,.05,.34,.08,.62,.08,.82h.07c.07-.53,.18-1.26,.35-2.19s.29-1.55,.37-1.88l1.48-5.48h3.31l-3.57,12.38h-3.68Z"/><path class="d" d="M342.64,420.09c-1.45,0-2.59-.53-3.42-1.58h-.18c.12,1.03,.18,1.63,.18,1.79v5.02h-3.38v-17.83h2.75l.48,1.61h.15c.79-1.23,1.96-1.84,3.51-1.84,1.46,0,2.61,.57,3.43,1.69,.83,1.13,1.24,2.7,1.24,4.71,0,1.32-.19,2.47-.58,3.44-.39,.97-.94,1.72-1.66,2.23-.72,.51-1.56,.76-2.52,.76Zm-1-10.13c-.83,0-1.44,.26-1.83,.77s-.58,1.36-.6,2.54v.37c0,1.33,.2,2.28,.59,2.86,.39,.58,1.02,.86,1.88,.86,1.51,0,2.27-1.25,2.27-3.74,0-1.22-.19-2.13-.56-2.74-.37-.61-.96-.91-1.75-.91Z"/><path class="d" d="M361.44,413.66c0,2.02-.53,3.59-1.59,4.73-1.06,1.14-2.54,1.71-4.44,1.71-1.19,0-2.24-.26-3.15-.78-.91-.52-1.61-1.27-2.09-2.24-.49-.97-.73-2.11-.73-3.41,0-2.02,.53-3.59,1.58-4.72,1.05-1.12,2.54-1.68,4.45-1.68,1.19,0,2.24,.26,3.14,.78s1.61,1.26,2.09,2.23,.73,2.1,.73,3.4Zm-8.56,0c0,1.23,.2,2.15,.6,2.78,.4,.63,1.06,.94,1.97,.94s1.55-.31,1.94-.94c.39-.62,.59-1.55,.59-2.79s-.2-2.14-.6-2.76c-.4-.61-1.05-.92-1.96-.92s-1.55,.3-1.95,.91-.6,1.53-.6,2.76Z"/><path class="d" d="M371.14,407.26c.46,0,.84,.03,1.14,.1l-.25,3.17c-.27-.07-.61-.11-1-.11-1.08,0-1.92,.28-2.52,.83-.6,.55-.9,1.33-.9,2.33v6.3h-3.38v-12.38h2.56l.5,2.08h.17c.38-.69,.9-1.25,1.56-1.68,.65-.42,1.36-.64,2.13-.64Z"/><path class="d" d="M379.74,417.4c.59,0,1.3-.13,2.13-.39v2.51c-.84,.38-1.88,.56-3.1,.56-1.35,0-2.33-.34-2.95-1.02s-.92-1.71-.92-3.07v-5.97h-1.62v-1.43l1.86-1.13,.97-2.61h2.16v2.63h3.47v2.54h-3.47v5.97c0,.48,.13,.83,.4,1.06s.63,.34,1.07,.34Z"/><path class="d" d="M387.16,403.68l-.45,5.85h-2.18l-.45-5.85h3.09Zm4.67,0l-.45,5.85h-2.18l-.45-5.85h3.09Z"/><path class="d" d="M406,420.09c-3.85,0-5.78-2.12-5.78-6.34,0-2.1,.52-3.71,1.57-4.82s2.55-1.67,4.51-1.67c1.43,0,2.72,.28,3.85,.84l-1,2.61c-.53-.21-1.03-.39-1.48-.53-.46-.14-.92-.2-1.37-.2-1.76,0-2.64,1.25-2.64,3.74s.88,3.63,2.64,3.63c.65,0,1.25-.09,1.8-.26,.55-.17,1.11-.45,1.66-.81v2.89c-.55,.35-1.1,.59-1.66,.72s-1.26,.2-2.11,.2Z"/><path class="d" d="M423.88,413.66c0,2.02-.53,3.59-1.59,4.73-1.06,1.14-2.54,1.71-4.44,1.71-1.19,0-2.24-.26-3.15-.78-.91-.52-1.61-1.27-2.09-2.24-.49-.97-.73-2.11-.73-3.41,0-2.02,.53-3.59,1.58-4.72,1.05-1.12,2.54-1.68,4.45-1.68,1.19,0,2.24,.26,3.14,.78s1.61,1.26,2.09,2.23,.73,2.1,.73,3.4Zm-8.56,0c0,1.23,.2,2.15,.6,2.78,.4,.63,1.06,.94,1.97,.94s1.55-.31,1.94-.94c.39-.62,.59-1.55,.59-2.79s-.2-2.14-.6-2.76c-.4-.61-1.05-.92-1.96-.92s-1.55,.3-1.95,.91-.6,1.53-.6,2.76Z"/><path class="d" d="M438.1,419.87h-3.38v-7.23c0-.89-.16-1.56-.48-2.01s-.82-.67-1.52-.67c-.94,0-1.63,.32-2.05,.95-.42,.63-.63,1.68-.63,3.14v5.82h-3.38v-12.38h2.58l.45,1.58h.19c.38-.6,.89-1.05,1.56-1.36,.66-.31,1.41-.46,2.25-.46,1.44,0,2.53,.39,3.28,1.17,.75,.78,1.12,1.9,1.12,3.37v8.07Z"/><path class="d" d="M446.79,417.4c.59,0,1.3-.13,2.13-.39v2.51c-.84,.38-1.88,.56-3.1,.56-1.35,0-2.33-.34-2.95-1.02s-.92-1.71-.92-3.07v-5.97h-1.62v-1.43l1.86-1.13,.97-2.61h2.16v2.63h3.47v2.54h-3.47v5.97c0,.48,.13,.83,.4,1.06s.63,.34,1.07,.34Z"/><path class="d" d="M457.02,420.09c-1.99,0-3.55-.55-4.67-1.65-1.12-1.1-1.68-2.66-1.68-4.67s.52-3.68,1.56-4.81,2.47-1.7,4.3-1.7,3.11,.5,4.09,1.5c.97,1,1.46,2.37,1.46,4.13v1.64h-7.98c.04,.96,.32,1.71,.85,2.25,.53,.54,1.28,.81,2.24,.81,.75,0,1.45-.08,2.12-.23s1.36-.4,2.08-.74v2.61c-.59,.29-1.22,.51-1.89,.66-.67,.14-1.49,.22-2.46,.22Zm-.48-10.43c-.72,0-1.28,.23-1.68,.68-.41,.45-.64,1.1-.7,1.93h4.74c-.01-.83-.23-1.48-.65-1.93s-.99-.68-1.71-.68Z"/><path class="d" d="M476.24,419.87h-3.38v-7.23c0-.89-.16-1.56-.48-2.01s-.82-.67-1.52-.67c-.94,0-1.63,.32-2.05,.95-.42,.63-.63,1.68-.63,3.14v5.82h-3.38v-12.38h2.58l.45,1.58h.19c.38-.6,.89-1.05,1.56-1.36,.66-.31,1.41-.46,2.25-.46,1.44,0,2.53,.39,3.28,1.17,.75,.78,1.12,1.9,1.12,3.37v8.07Z"/><path class="d" d="M484.94,417.4c.59,0,1.3-.13,2.13-.39v2.51c-.84,.38-1.88,.56-3.1,.56-1.35,0-2.33-.34-2.95-1.02s-.92-1.71-.92-3.07v-5.97h-1.62v-1.43l1.86-1.13,.97-2.61h2.16v2.63h3.47v2.54h-3.47v5.97c0,.48,.13,.83,.4,1.06s.63,.34,1.07,.34Z"/><path class="d" d="M488.77,410.96v-2.42h11v2.42h-11Zm0,4.29v-2.42h11v2.42h-11Z"/><path class="d" d="M505.3,403.68l-.45,5.85h-2.18l-.45-5.85h3.09Zm4.67,0l-.45,5.85h-2.18l-.45-5.85h3.09Z"/><path class="d" d="M523.39,419.87l-.95-4.33-1.28-5.47h-.08l-2.26,9.8h-3.63l-3.52-12.38h3.37l1.43,5.48c.23,.98,.46,2.34,.7,4.06h.07c.03-.56,.16-1.45,.39-2.67l.18-.94,1.53-5.94h3.72l1.45,5.94c.03,.16,.08,.4,.14,.72,.06,.32,.12,.66,.18,1.01,.06,.36,.11,.71,.16,1.05,.05,.34,.08,.62,.08,.82h.07c.07-.53,.18-1.26,.35-2.19s.29-1.55,.37-1.88l1.48-5.48h3.31l-3.57,12.38h-3.68Z"/><path class="d" d="M532.48,404.29c0-1.1,.61-1.65,1.84-1.65s1.84,.55,1.84,1.65c0,.52-.15,.93-.46,1.22-.31,.29-.77,.44-1.38,.44-1.23,0-1.84-.55-1.84-1.66Zm3.52,15.58h-3.38v-12.38h3.38v12.38Z"/><path class="d" d="M543.47,420.09c-1.45,0-2.6-.56-3.43-1.69-.83-1.13-1.25-2.69-1.25-4.7s.42-3.61,1.27-4.74c.85-1.13,2.01-1.7,3.49-1.7,1.56,0,2.75,.61,3.57,1.82h.11c-.17-.92-.25-1.75-.25-2.47v-3.96h3.39v17.23h-2.59l-.65-1.61h-.14c-.77,1.22-1.94,1.83-3.51,1.83Zm1.18-2.69c.86,0,1.5-.25,1.9-.75,.4-.5,.62-1.35,.66-2.56v-.37c0-1.33-.2-2.28-.61-2.86-.41-.58-1.08-.86-2-.86-.75,0-1.34,.32-1.76,.96s-.62,1.57-.62,2.79,.21,2.13,.63,2.74,1.02,.91,1.8,.91Z"/><path class="d" d="M559.11,417.4c.59,0,1.3-.13,2.13-.39v2.51c-.84,.38-1.88,.56-3.1,.56-1.35,0-2.33-.34-2.95-1.02s-.92-1.71-.92-3.07v-5.97h-1.62v-1.43l1.86-1.13,.97-2.61h2.16v2.63h3.47v2.54h-3.47v5.97c0,.48,.13,.83,.4,1.06s.63,.34,1.07,.34Z"/><path class="d" d="M575.17,419.87h-3.38v-7.23c0-1.79-.66-2.68-1.99-2.68-.94,0-1.63,.32-2.05,.96-.42,.64-.63,1.68-.63,3.12v5.82h-3.38v-17.23h3.38v3.51c0,.27-.03,.92-.08,1.93l-.08,1h.18c.75-1.21,1.95-1.82,3.59-1.82,1.45,0,2.56,.39,3.31,1.17,.75,.78,1.13,1.9,1.13,3.37v8.07Z"/><path class="d" d="M577.85,410.96v-2.42h11v2.42h-11Zm0,4.29v-2.42h11v2.42h-11Z"/><path class="d" d="M595.51,420.09c-1.45,0-2.6-.56-3.43-1.69-.83-1.13-1.25-2.69-1.25-4.7s.42-3.61,1.27-4.74c.85-1.13,2.01-1.7,3.49-1.7,1.56,0,2.75,.61,3.57,1.82h.11c-.17-.92-.25-1.75-.25-2.47v-3.96h3.39v17.23h-2.59l-.65-1.61h-.14c-.77,1.22-1.94,1.83-3.51,1.83Zm1.18-2.69c.86,0,1.5-.25,1.9-.75,.4-.5,.62-1.35,.66-2.56v-.37c0-1.33-.2-2.28-.61-2.86-.41-.58-1.08-.86-2-.86-.75,0-1.34,.32-1.76,.96s-.62,1.57-.62,2.79,.21,2.13,.63,2.74,1.02,.91,1.8,.91Z"/><path class="d" d="M611.54,420.09c-1.99,0-3.55-.55-4.67-1.65-1.12-1.1-1.68-2.66-1.68-4.67s.52-3.68,1.56-4.81,2.47-1.7,4.3-1.7,3.11,.5,4.09,1.5c.97,1,1.46,2.37,1.46,4.13v1.64h-7.98c.04,.96,.32,1.71,.85,2.25,.53,.54,1.28,.81,2.24,.81,.75,0,1.45-.08,2.12-.23s1.36-.4,2.08-.74v2.61c-.59,.29-1.22,.51-1.89,.66-.67,.14-1.49,.22-2.46,.22Zm-.48-10.43c-.72,0-1.28,.23-1.68,.68-.41,.45-.64,1.1-.7,1.93h4.74c-.01-.83-.23-1.48-.65-1.93s-.99-.68-1.71-.68Z"/><path class="d" d="M622.29,419.87l-4.72-12.38h3.53l2.39,7.05c.27,.89,.43,1.74,.5,2.54h.07c.04-.71,.2-1.55,.5-2.54l2.38-7.05h3.53l-4.72,12.38h-3.47Z"/><path class="d" d="M632.1,404.29c0-1.1,.61-1.65,1.84-1.65s1.84,.55,1.84,1.65c0,.52-.15,.93-.46,1.22-.31,.29-.77,.44-1.38,.44-1.23,0-1.84-.55-1.84-1.66Zm3.52,15.58h-3.38v-12.38h3.38v12.38Z"/><path class="d" d="M644.19,420.09c-3.85,0-5.78-2.12-5.78-6.34,0-2.1,.52-3.71,1.57-4.82s2.55-1.67,4.51-1.67c1.43,0,2.72,.28,3.85,.84l-1,2.61c-.53-.21-1.03-.39-1.48-.53-.46-.14-.92-.2-1.37-.2-1.76,0-2.64,1.25-2.64,3.74s.88,3.63,2.64,3.63c.65,0,1.25-.09,1.8-.26,.55-.17,1.11-.45,1.66-.81v2.89c-.55,.35-1.1,.59-1.66,.72s-1.26,.2-2.11,.2Z"/><path class="d" d="M656.42,420.09c-1.99,0-3.55-.55-4.67-1.65-1.12-1.1-1.68-2.66-1.68-4.67s.52-3.68,1.56-4.81,2.47-1.7,4.3-1.7,3.11,.5,4.09,1.5c.97,1,1.46,2.37,1.46,4.13v1.64h-7.98c.04,.96,.32,1.71,.85,2.25,.53,.54,1.28,.81,2.24,.81,.75,0,1.45-.08,2.12-.23s1.36-.4,2.08-.74v2.61c-.59,.29-1.22,.51-1.89,.66-.67,.14-1.49,.22-2.46,.22Zm-.48-10.43c-.72,0-1.28,.23-1.68,.68-.41,.45-.64,1.1-.7,1.93h4.74c-.01-.83-.23-1.48-.65-1.93s-.99-.68-1.71-.68Z"/><path class="d" d="M663.12,415.18v-2.77h5.95v2.77h-5.95Z"/><path class="d" d="M681.69,419.87l-.95-4.33-1.28-5.47h-.08l-2.26,9.8h-3.63l-3.52-12.38h3.37l1.43,5.48c.23,.98,.46,2.34,.7,4.06h.07c.03-.56,.16-1.45,.39-2.67l.18-.94,1.53-5.94h3.72l1.45,5.94c.03,.16,.08,.4,.14,.72,.06,.32,.12,.66,.18,1.01,.06,.36,.11,.71,.16,1.05,.05,.34,.08,.62,.08,.82h.07c.07-.53,.18-1.26,.35-2.19s.29-1.55,.37-1.88l1.48-5.48h3.31l-3.57,12.38h-3.68Z"/><path class="d" d="M690.78,404.29c0-1.1,.61-1.65,1.84-1.65s1.84,.55,1.84,1.65c0,.52-.15,.93-.46,1.22-.31,.29-.77,.44-1.38,.44-1.23,0-1.84-.55-1.84-1.66Zm3.52,15.58h-3.38v-12.38h3.38v12.38Z"/><path class="d" d="M701.77,420.09c-1.45,0-2.6-.56-3.43-1.69-.83-1.13-1.25-2.69-1.25-4.7s.42-3.61,1.27-4.74c.85-1.13,2.01-1.7,3.49-1.7,1.56,0,2.75,.61,3.57,1.82h.11c-.17-.92-.25-1.75-.25-2.47v-3.96h3.39v17.23h-2.59l-.65-1.61h-.14c-.77,1.22-1.94,1.83-3.51,1.83Zm1.18-2.69c.86,0,1.5-.25,1.9-.75,.4-.5,.62-1.35,.66-2.56v-.37c0-1.33-.2-2.28-.61-2.86-.41-.58-1.08-.86-2-.86-.75,0-1.34,.32-1.76,.96s-.62,1.57-.62,2.79,.21,2.13,.63,2.74,1.02,.91,1.8,.91Z"/><path class="d" d="M717.41,417.4c.59,0,1.3-.13,2.13-.39v2.51c-.84,.38-1.88,.56-3.1,.56-1.35,0-2.33-.34-2.95-1.02s-.92-1.71-.92-3.07v-5.97h-1.62v-1.43l1.86-1.13,.97-2.61h2.16v2.63h3.47v2.54h-3.47v5.97c0,.48,.13,.83,.4,1.06s.63,.34,1.07,.34Z"/><path class="d" d="M733.47,419.87h-3.38v-7.23c0-1.79-.66-2.68-1.99-2.68-.94,0-1.63,.32-2.05,.96-.42,.64-.63,1.68-.63,3.12v5.82h-3.38v-17.23h3.38v3.51c0,.27-.03,.92-.08,1.93l-.08,1h.18c.75-1.21,1.95-1.82,3.59-1.82,1.45,0,2.56,.39,3.31,1.17,.75,.78,1.13,1.9,1.13,3.37v8.07Z"/><path class="d" d="M740.26,417.49c-.38,1.49-1.03,3.26-1.95,5.3h-2.44c.48-1.96,.85-3.82,1.12-5.56h3.1l.17,.25Z"/><path class="d" d="M93.54,455.32c0-1.1,.61-1.65,1.84-1.65s1.84,.55,1.84,1.65c0,.52-.15,.93-.46,1.22-.31,.29-.77,.44-1.38,.44-1.23,0-1.84-.55-1.84-1.66Zm3.52,15.58h-3.38v-12.38h3.38v12.38Z"/><path class="d" d="M112.04,470.9h-3.38v-7.23c0-.89-.16-1.56-.48-2.01s-.82-.67-1.52-.67c-.94,0-1.63,.32-2.05,.95-.42,.63-.63,1.68-.63,3.14v5.82h-3.38v-12.38h2.58l.45,1.58h.19c.38-.6,.89-1.05,1.56-1.36,.66-.31,1.41-.46,2.25-.46,1.44,0,2.53,.39,3.28,1.17,.75,.78,1.12,1.9,1.12,3.37v8.07Z"/><path class="d" d="M115.37,455.32c0-1.1,.61-1.65,1.84-1.65s1.84,.55,1.84,1.65c0,.52-.15,.93-.46,1.22-.31,.29-.77,.44-1.38,.44-1.23,0-1.84-.55-1.84-1.66Zm3.52,15.58h-3.38v-12.38h3.38v12.38Z"/><path class="d" d="M127.65,468.43c.59,0,1.3-.13,2.13-.39v2.51c-.84,.38-1.88,.56-3.1,.56-1.35,0-2.33-.34-2.95-1.02s-.92-1.71-.92-3.07v-5.97h-1.62v-1.43l1.86-1.13,.97-2.61h2.16v2.63h3.47v2.54h-3.47v5.97c0,.48,.13,.83,.4,1.06s.63,.34,1.07,.34Z"/><path class="d" d="M132.13,455.32c0-1.1,.61-1.65,1.84-1.65s1.84,.55,1.84,1.65c0,.52-.15,.93-.46,1.22-.31,.29-.77,.44-1.38,.44-1.23,0-1.84-.55-1.84-1.66Zm3.52,15.58h-3.38v-12.38h3.38v12.38Z"/><path class="d" d="M147.06,470.9l-.65-1.68h-.09c-.57,.72-1.15,1.21-1.75,1.49-.6,.28-1.39,.42-2.35,.42-1.19,0-2.12-.34-2.81-1.02-.68-.68-1.02-1.65-1.02-2.9s.46-2.28,1.38-2.91c.92-.62,2.3-.97,4.16-1.04l2.15-.07v-.54c0-1.25-.64-1.88-1.93-1.88-.99,0-2.15,.3-3.49,.9l-1.12-2.28c1.42-.75,3-1.12,4.74-1.12s2.93,.36,3.82,1.08,1.33,1.82,1.33,3.3v8.25h-2.36Zm-1-5.74l-1.31,.04c-.98,.03-1.71,.21-2.19,.53-.48,.33-.72,.82-.72,1.48,0,.95,.55,1.43,1.64,1.43,.78,0,1.41-.22,1.88-.67s.7-1.05,.7-1.79v-1.02Z"/><path class="d" d="M156.27,470.9h-3.38v-17.23h3.38v17.23Z"/><path class="d" d="M158.72,466.2v-2.77h5.95v2.77h-5.95Z"/><path class="d" d="M175.75,467.22c0,1.27-.44,2.24-1.32,2.9-.88,.67-2.2,1-3.96,1-.9,0-1.67-.06-2.3-.18-.63-.12-1.23-.3-1.78-.54v-2.79c.63,.3,1.33,.54,2.12,.74s1.48,.3,2.08,.3c1.23,0,1.84-.35,1.84-1.06,0-.27-.08-.48-.24-.65-.16-.17-.44-.35-.84-.56-.4-.21-.93-.46-1.59-.74-.95-.4-1.65-.77-2.1-1.11-.45-.34-.77-.73-.97-1.17s-.3-.98-.3-1.62c0-1.1,.43-1.95,1.28-2.55,.85-.6,2.06-.9,3.63-.9s2.94,.33,4.35,.97l-1.02,2.44c-.62-.27-1.2-.48-1.74-.65s-1.09-.25-1.65-.25c-1,0-1.49,.27-1.49,.81,0,.3,.16,.56,.48,.79,.32,.22,1.02,.55,2.11,.99,.97,.39,1.68,.76,2.13,1.1,.45,.34,.78,.73,1,1.17,.21,.44,.32,.97,.32,1.58Z"/><path class="d" d="M183.41,471.12c-3.85,0-5.78-2.12-5.78-6.34,0-2.1,.52-3.71,1.57-4.82s2.55-1.67,4.51-1.67c1.43,0,2.72,.28,3.85,.84l-1,2.61c-.53-.21-1.03-.39-1.48-.53-.46-.14-.92-.2-1.37-.2-1.76,0-2.64,1.25-2.64,3.74s.88,3.63,2.64,3.63c.65,0,1.25-.09,1.8-.26,.55-.17,1.11-.45,1.66-.81v2.89c-.55,.35-1.1,.59-1.66,.72s-1.26,.2-2.11,.2Z"/><path class="d" d="M197.91,470.9l-.65-1.68h-.09c-.57,.72-1.15,1.21-1.75,1.49-.6,.28-1.39,.42-2.35,.42-1.19,0-2.12-.34-2.81-1.02-.68-.68-1.02-1.65-1.02-2.9s.46-2.28,1.38-2.91c.92-.62,2.3-.97,4.16-1.04l2.15-.07v-.54c0-1.25-.64-1.88-1.93-1.88-.99,0-2.15,.3-3.49,.9l-1.12-2.28c1.42-.75,3-1.12,4.74-1.12s2.93,.36,3.82,1.08,1.33,1.82,1.33,3.3v8.25h-2.36Zm-1-5.74l-1.31,.04c-.98,.03-1.71,.21-2.19,.53-.48,.33-.72,.82-.72,1.48,0,.95,.55,1.43,1.64,1.43,.78,0,1.41-.22,1.88-.67s.7-1.05,.7-1.79v-1.02Z"/><path class="d" d="M207.12,470.9h-3.38v-17.23h3.38v17.23Z"/><path class="d" d="M216.27,471.12c-1.99,0-3.55-.55-4.67-1.65-1.12-1.1-1.68-2.66-1.68-4.67s.52-3.68,1.56-4.81,2.47-1.7,4.3-1.7,3.11,.5,4.09,1.5c.97,1,1.46,2.37,1.46,4.13v1.64h-7.98c.04,.96,.32,1.71,.85,2.25,.53,.54,1.28,.81,2.24,.81,.75,0,1.45-.08,2.12-.23s1.36-.4,2.08-.74v2.61c-.59,.29-1.22,.51-1.89,.66-.67,.14-1.49,.22-2.46,.22Zm-.48-10.43c-.72,0-1.28,.23-1.68,.68-.41,.45-.64,1.1-.7,1.93h4.74c-.01-.83-.23-1.48-.65-1.93s-.99-.68-1.71-.68Z"/><path class="d" d="M223.26,461.98v-2.42h11v2.42h-11Zm0,4.29v-2.42h11v2.42h-11Z"/><path class="d" d="M244.6,470.9h-3.42v-9.37l.03-1.54,.06-1.68c-.57,.57-.96,.94-1.19,1.12l-1.86,1.5-1.65-2.06,5.21-4.15h2.81v16.19Z"/><path class="d" d="M249.47,469.31c0-.62,.17-1.09,.5-1.41s.82-.48,1.45-.48,1.09,.16,1.42,.49,.5,.79,.5,1.4-.17,1.04-.51,1.38c-.34,.34-.81,.5-1.42,.5s-1.1-.16-1.44-.49c-.34-.33-.51-.79-.51-1.39Z"/><path class="d" d="M266.78,462.8c0,2.83-.46,4.92-1.39,6.28-.93,1.36-2.35,2.04-4.28,2.04s-3.28-.7-4.22-2.1c-.95-1.4-1.42-3.47-1.42-6.21s.46-4.96,1.38-6.32,2.34-2.03,4.26-2.03,3.28,.71,4.24,2.13c.96,1.42,1.43,3.49,1.43,6.22Zm-7.92,0c0,1.99,.17,3.41,.51,4.27,.34,.86,.92,1.29,1.73,1.29s1.37-.43,1.73-1.31c.35-.87,.53-2.29,.53-4.25s-.18-3.41-.54-4.28c-.36-.87-.93-1.3-1.72-1.3s-1.38,.43-1.73,1.3-.52,2.29-.52,4.28Z"/><path class="d" d="M272.15,454.71l-.45,5.85h-2.18l-.45-5.85h3.09Zm4.67,0l-.45,5.85h-2.18l-.45-5.85h3.09Z"/><path class="d" d="M279.27,466l7.57-3.11-7.57-3.51v-2.66l11,5.49v1.58l-11,4.85v-2.65Z"/><path class="d" d="M127.45,519.67l-11-4.85v-1.58l11-5.49v2.66l-7.57,3.51,7.57,3.11v2.65Z"/><path class="d" d="M135.41,519.45c.59,0,1.3-.13,2.13-.39v2.51c-.84,.38-1.88,.56-3.1,.56-1.35,0-2.33-.34-2.95-1.02s-.92-1.71-.92-3.07v-5.97h-1.62v-1.43l1.86-1.13,.97-2.61h2.16v2.63h3.47v2.54h-3.47v5.97c0,.48,.13,.83,.4,1.06s.63,.34,1.07,.34Z"/><path class="d" d="M139.89,506.34c0-1.1,.61-1.65,1.84-1.65s1.84,.55,1.84,1.65c0,.52-.15,.93-.46,1.22-.31,.29-.77,.44-1.38,.44-1.23,0-1.84-.55-1.84-1.66Zm3.52,15.58h-3.38v-12.38h3.38v12.38Z"/><path class="d" d="M152.17,519.45c.59,0,1.3-.13,2.13-.39v2.51c-.84,.38-1.88,.56-3.1,.56-1.35,0-2.33-.34-2.95-1.02s-.92-1.71-.92-3.07v-5.97h-1.62v-1.43l1.86-1.13,.97-2.61h2.16v2.63h3.47v2.54h-3.47v5.97c0,.48,.13,.83,.4,1.06s.63,.34,1.07,.34Z"/><path class="d" d="M160.18,521.92h-3.38v-17.23h3.38v17.23Z"/><path class="d" d="M169.33,522.14c-1.99,0-3.55-.55-4.67-1.65-1.12-1.1-1.68-2.66-1.68-4.67s.52-3.68,1.56-4.81,2.47-1.7,4.3-1.7,3.11,.5,4.09,1.5c.97,1,1.46,2.37,1.46,4.13v1.64h-7.98c.04,.96,.32,1.71,.85,2.25,.53,.54,1.28,.81,2.24,.81,.75,0,1.45-.08,2.12-.23s1.36-.4,2.08-.74v2.61c-.59,.29-1.22,.51-1.89,.66-.67,.14-1.49,.22-2.46,.22Zm-.48-10.43c-.72,0-1.28,.23-1.68,.68-.41,.45-.64,1.1-.7,1.93h4.74c-.01-.83-.23-1.48-.65-1.93s-.99-.68-1.71-.68Z"/><path class="d" d="M176.32,517.03l7.57-3.11-7.57-3.51v-2.66l11,5.49v1.58l-11,4.85v-2.65Z"/><path class="d" d="M200.26,519.67l-11-4.85v-1.58l11-5.49v2.66l-7.57,3.51,7.57,3.11v2.65Z"/><path class="d" d="M210.5,505.73l-6.03,16.19h-3.07l6.03-16.19h3.07Z"/><path class="d" d="M217.59,519.45c.59,0,1.3-.13,2.13-.39v2.51c-.84,.38-1.88,.56-3.1,.56-1.35,0-2.33-.34-2.95-1.02s-.92-1.71-.92-3.07v-5.97h-1.62v-1.43l1.86-1.13,.97-2.61h2.16v2.63h3.47v2.54h-3.47v5.97c0,.48,.13,.83,.4,1.06s.63,.34,1.07,.34Z"/><path class="d" d="M222.08,506.34c0-1.1,.61-1.65,1.84-1.65s1.84,.55,1.84,1.65c0,.52-.15,.93-.46,1.22-.31,.29-.77,.44-1.38,.44-1.23,0-1.84-.55-1.84-1.66Zm3.52,15.58h-3.38v-12.38h3.38v12.38Z"/><path class="d" d="M234.36,519.45c.59,0,1.3-.13,2.13-.39v2.51c-.84,.38-1.88,.56-3.1,.56-1.35,0-2.33-.34-2.95-1.02s-.92-1.71-.92-3.07v-5.97h-1.62v-1.43l1.86-1.13,.97-2.61h2.16v2.63h3.47v2.54h-3.47v5.97c0,.48,.13,.83,.4,1.06s.63,.34,1.07,.34Z"/><path class="d" d="M242.36,521.92h-3.38v-17.23h3.38v17.23Z"/><path class="d" d="M251.51,522.14c-1.99,0-3.55-.55-4.67-1.65-1.12-1.1-1.68-2.66-1.68-4.67s.52-3.68,1.56-4.81,2.47-1.7,4.3-1.7,3.11,.5,4.09,1.5c.97,1,1.46,2.37,1.46,4.13v1.64h-7.98c.04,.96,.32,1.71,.85,2.25,.53,.54,1.28,.81,2.24,.81,.75,0,1.45-.08,2.12-.23s1.36-.4,2.08-.74v2.61c-.59,.29-1.22,.51-1.89,.66-.67,.14-1.49,.22-2.46,.22Zm-.48-10.43c-.72,0-1.28,.23-1.68,.68-.41,.45-.64,1.1-.7,1.93h4.74c-.01-.83-.23-1.48-.65-1.93s-.99-.68-1.71-.68Z"/><path class="d" d="M258.51,517.03l7.57-3.11-7.57-3.51v-2.66l11,5.49v1.58l-11,4.85v-2.65Z"/><path class="d" d="M127.45,570.7l-11-4.85v-1.58l11-5.49v2.66l-7.57,3.51,7.57,3.11v2.65Z"/><path class="d" d="M133.57,572.94h-3.38v-17.23h3.38v17.23Z"/><path class="d" d="M136.97,557.36c0-1.1,.61-1.65,1.84-1.65s1.84,.55,1.84,1.65c0,.52-.15,.93-.46,1.22-.31,.29-.77,.44-1.38,.44-1.23,0-1.84-.55-1.84-1.66Zm3.52,15.58h-3.38v-12.38h3.38v12.38Z"/><path class="d" d="M155.46,572.94h-3.38v-7.23c0-.89-.16-1.56-.48-2.01s-.82-.67-1.52-.67c-.94,0-1.63,.32-2.05,.95-.42,.63-.63,1.68-.63,3.14v5.82h-3.38v-12.38h2.58l.45,1.58h.19c.38-.6,.89-1.05,1.56-1.36,.66-.31,1.41-.46,2.25-.46,1.44,0,2.53,.39,3.28,1.17,.75,.78,1.12,1.9,1.12,3.37v8.07Z"/><path class="d" d="M162.18,566.21l1.47-1.88,3.47-3.77h3.81l-4.92,5.37,5.21,7.01h-3.9l-3.57-5.02-1.45,1.16v3.85h-3.38v-17.23h3.38v7.68l-.18,2.81h.04Z"/><path class="d" d="M185.8,560.33c.46,0,.84,.03,1.14,.1l-.25,3.17c-.27-.07-.61-.11-1-.11-1.08,0-1.92,.28-2.52,.83-.6,.55-.9,1.33-.9,2.33v6.3h-3.38v-12.38h2.56l.5,2.08h.17c.38-.69,.9-1.25,1.56-1.68,.65-.42,1.36-.64,2.13-.64Z"/><path class="d" d="M194.79,573.17c-1.99,0-3.55-.55-4.67-1.65-1.12-1.1-1.68-2.66-1.68-4.67s.52-3.68,1.56-4.81,2.47-1.7,4.3-1.7,3.11,.5,4.09,1.5c.97,1,1.46,2.37,1.46,4.13v1.64h-7.98c.04,.96,.32,1.71,.85,2.25,.53,.54,1.28,.81,2.24,.81,.75,0,1.45-.08,2.12-.23s1.36-.4,2.08-.74v2.61c-.59,.29-1.22,.51-1.89,.66-.67,.14-1.49,.22-2.46,.22Zm-.48-10.43c-.72,0-1.28,.23-1.68,.68-.41,.45-.64,1.1-.7,1.93h4.74c-.01-.83-.23-1.48-.65-1.93s-.99-.68-1.71-.68Z"/><path class="d" d="M205.97,572.94h-3.38v-17.23h3.38v17.23Z"/><path class="d" d="M208.71,564.03v-2.42h11v2.42h-11Zm0,4.29v-2.42h11v2.42h-11Z"/><path class="d" d="M225.24,556.76l-.45,5.85h-2.18l-.45-5.85h3.09Zm4.67,0l-.45,5.85h-2.18l-.45-5.85h3.09Z"/><path class="d" d="M235.95,556.76l-.45,5.85h-2.18l-.45-5.85h3.09Zm4.67,0l-.45,5.85h-2.18l-.45-5.85h3.09Z"/><path class="d" d="M261.19,572.94h-3.38v-7.23c0-1.79-.66-2.68-1.99-2.68-.94,0-1.63,.32-2.05,.96-.42,.64-.63,1.68-.63,3.12v5.82h-3.38v-17.23h3.38v3.51c0,.27-.03,.92-.08,1.93l-.08,1h.18c.75-1.21,1.95-1.82,3.59-1.82,1.45,0,2.56,.39,3.31,1.17,.75,.78,1.13,1.9,1.13,3.37v8.07Z"/><path class="d" d="M271.57,560.33c.46,0,.84,.03,1.14,.1l-.25,3.17c-.27-.07-.61-.11-1-.11-1.08,0-1.92,.28-2.52,.83-.6,.55-.9,1.33-.9,2.33v6.3h-3.38v-12.38h2.56l.5,2.08h.17c.38-.69,.9-1.25,1.56-1.68,.65-.42,1.36-.64,2.13-.64Z"/><path class="d" d="M280.56,573.17c-1.99,0-3.55-.55-4.67-1.65-1.12-1.1-1.68-2.66-1.68-4.67s.52-3.68,1.56-4.81,2.47-1.7,4.3-1.7,3.11,.5,4.09,1.5c.97,1,1.46,2.37,1.46,4.13v1.64h-7.98c.04,.96,.32,1.71,.85,2.25,.53,.54,1.28,.81,2.24,.81,.75,0,1.45-.08,2.12-.23s1.36-.4,2.08-.74v2.61c-.59,.29-1.22,.51-1.89,.66-.67,.14-1.49,.22-2.46,.22Zm-.48-10.43c-.72,0-1.28,.23-1.68,.68-.41,.45-.64,1.1-.7,1.93h4.74c-.01-.83-.23-1.48-.65-1.93s-.99-.68-1.71-.68Z"/><path class="d" d="M295.2,563.1h-2.92v9.84h-3.38v-9.84h-1.86v-1.63l1.86-.91v-.91c0-1.41,.35-2.44,1.04-3.09,.69-.65,1.8-.97,3.33-.97,1.17,0,2.2,.17,3.11,.52l-.86,2.48c-.68-.21-1.31-.32-1.88-.32-.48,0-.83,.14-1.04,.43s-.32,.65-.32,1.09v.77h2.92v2.54Z"/><path class="d" d="M296.34,564.03v-2.42h11v2.42h-11Zm0,4.29v-2.42h11v2.42h-11Z"/><path class="d" d="M312.87,556.76l-.45,5.85h-2.18l-.45-5.85h3.09Zm4.67,0l-.45,5.85h-2.18l-.45-5.85h3.09Z"/><path class="d" d="M323.58,556.76l-.45,5.85h-2.18l-.45-5.85h3.09Zm4.67,0l-.45,5.85h-2.18l-.45-5.85h3.09Z"/><path class="d" d="M344.87,556.76l-6.03,16.19h-3.07l6.03-16.19h3.07Z"/><path class="d" d="M345.96,568.05l7.57-3.11-7.57-3.51v-2.66l11,5.49v1.58l-11,4.85v-2.65Z"/><path class="d" d="M103.88,621.72l-11-4.85v-1.58l11-5.49v2.66l-7.57,3.51,7.57,3.11v2.65Z"/><path class="d" d="M114.12,607.78l-6.03,16.19h-3.07l6.03-16.19h3.07Z"/><path class="d" d="M127.43,623.97h-3.38v-7.23c0-1.79-.66-2.68-1.99-2.68-.94,0-1.63,.32-2.05,.96-.42,.64-.63,1.68-.63,3.12v5.82h-3.38v-17.23h3.38v3.51c0,.27-.03,.92-.08,1.93l-.08,1h.18c.75-1.21,1.95-1.82,3.59-1.82,1.45,0,2.56,.39,3.31,1.17,.75,.78,1.13,1.9,1.13,3.37v8.07Z"/><path class="d" d="M136.5,624.19c-1.99,0-3.55-.55-4.67-1.65-1.12-1.1-1.68-2.66-1.68-4.67s.52-3.68,1.56-4.81,2.47-1.7,4.3-1.7,3.11,.5,4.09,1.5c.97,1,1.46,2.37,1.46,4.13v1.64h-7.98c.04,.96,.32,1.71,.85,2.25,.53,.54,1.28,.81,2.24,.81,.75,0,1.45-.08,2.12-.23s1.36-.4,2.08-.74v2.61c-.59,.29-1.22,.51-1.89,.66-.67,.14-1.49,.22-2.46,.22Zm-.48-10.43c-.72,0-1.28,.23-1.68,.68-.41,.45-.64,1.1-.7,1.93h4.74c-.01-.83-.23-1.48-.65-1.93s-.99-.68-1.71-.68Z"/><path class="d" d="M152.16,623.97l-.65-1.68h-.09c-.57,.72-1.15,1.21-1.75,1.49-.6,.28-1.39,.42-2.35,.42-1.19,0-2.12-.34-2.81-1.02-.68-.68-1.02-1.65-1.02-2.9s.46-2.28,1.38-2.91c.92-.62,2.3-.97,4.16-1.04l2.15-.07v-.54c0-1.25-.64-1.88-1.93-1.88-.99,0-2.15,.3-3.49,.9l-1.12-2.28c1.42-.75,3-1.12,4.74-1.12s2.93,.36,3.82,1.08,1.33,1.82,1.33,3.3v8.25h-2.36Zm-1-5.74l-1.31,.04c-.98,.03-1.71,.21-2.19,.53-.48,.33-.72,.82-.72,1.48,0,.95,.55,1.43,1.64,1.43,.78,0,1.41-.22,1.88-.67s.7-1.05,.7-1.79v-1.02Z"/><path class="d" d="M161.92,624.19c-1.45,0-2.6-.56-3.43-1.69-.83-1.13-1.25-2.69-1.25-4.7s.42-3.61,1.27-4.74c.85-1.13,2.01-1.7,3.49-1.7,1.56,0,2.75,.61,3.57,1.82h.11c-.17-.92-.25-1.75-.25-2.47v-3.96h3.39v17.23h-2.59l-.65-1.61h-.14c-.77,1.22-1.94,1.83-3.51,1.83Zm1.18-2.69c.86,0,1.5-.25,1.9-.75,.4-.5,.62-1.35,.66-2.56v-.37c0-1.33-.2-2.28-.61-2.86-.41-.58-1.08-.86-2-.86-.75,0-1.34,.32-1.76,.96s-.62,1.57-.62,2.79,.21,2.13,.63,2.74,1.02,.91,1.8,.91Z"/><path class="d" d="M171.55,619.07l7.57-3.11-7.57-3.51v-2.66l11,5.49v1.58l-11,4.85v-2.65Z"/><path class="d" d="M103.88,672.74l-11-4.85v-1.58l11-5.49v2.66l-7.57,3.51,7.57,3.11v2.65Z"/><path class="d" d="M113.52,662.38c1.46,0,2.61,.57,3.43,1.71,.83,1.14,1.24,2.7,1.24,4.69s-.43,3.63-1.28,4.75-2.01,1.68-3.48,1.68-2.59-.53-3.42-1.58h-.23l-.56,1.36h-2.58v-17.23h3.38v4.01c0,.51-.04,1.33-.13,2.45h.13c.79-1.23,1.96-1.84,3.51-1.84Zm-1.08,2.7c-.83,0-1.44,.26-1.83,.77s-.58,1.36-.6,2.54v.37c0,1.33,.2,2.28,.59,2.86,.39,.58,1.02,.86,1.88,.86,.69,0,1.25-.32,1.66-.96,.41-.64,.61-1.57,.61-2.78s-.21-2.13-.62-2.74c-.41-.61-.98-.91-1.69-.91Z"/><path class="d" d="M132.23,668.78c0,2.02-.53,3.59-1.59,4.73-1.06,1.14-2.54,1.71-4.44,1.71-1.19,0-2.24-.26-3.15-.78-.91-.52-1.61-1.27-2.09-2.24-.49-.97-.73-2.11-.73-3.41,0-2.02,.53-3.59,1.58-4.72,1.05-1.12,2.54-1.68,4.45-1.68,1.19,0,2.24,.26,3.14,.78s1.61,1.26,2.09,2.23,.73,2.1,.73,3.4Zm-8.56,0c0,1.23,.2,2.15,.6,2.78,.4,.63,1.06,.94,1.97,.94s1.55-.31,1.94-.94c.39-.62,.59-1.55,.59-2.79s-.2-2.14-.6-2.76c-.4-.61-1.05-.92-1.96-.92s-1.55,.3-1.95,.91-.6,1.53-.6,2.76Z"/><path class="d" d="M138.94,675.21c-1.45,0-2.6-.56-3.43-1.69-.83-1.13-1.25-2.69-1.25-4.7s.42-3.61,1.27-4.74c.85-1.13,2.01-1.7,3.49-1.7,1.56,0,2.75,.61,3.57,1.82h.11c-.17-.92-.25-1.75-.25-2.47v-3.96h3.39v17.23h-2.59l-.65-1.61h-.14c-.77,1.22-1.94,1.83-3.51,1.83Zm1.18-2.69c.86,0,1.5-.25,1.9-.75,.4-.5,.62-1.35,.66-2.56v-.37c0-1.33-.2-2.28-.61-2.86-.41-.58-1.08-.86-2-.86-.75,0-1.34,.32-1.76,.96s-.62,1.57-.62,2.79,.21,2.13,.63,2.74,1.02,.91,1.8,.91Z"/><path class="d" d="M147.6,662.61h3.7l2.34,6.96c.2,.61,.33,1.32,.41,2.15h.07c.08-.76,.24-1.48,.48-2.15l2.29-6.96h3.62l-5.24,13.96c-.48,1.29-1.16,2.26-2.05,2.9s-1.93,.96-3.12,.96c-.58,0-1.16-.06-1.72-.19v-2.68c.41,.1,.85,.14,1.33,.14,.6,0,1.12-.18,1.57-.55,.45-.37,.79-.92,1.05-1.66l.2-.61-4.92-12.29Z"/><path class="d" d="M161.47,670.1l7.57-3.11-7.57-3.51v-2.66l11,5.49v1.58l-11,4.85v-2.65Z"/><path class="d" d="M103.88,723.77l-11-4.85v-1.58l11-5.49v2.66l-7.57,3.51,7.57,3.11v2.65Z"/><path class="d" d="M117.71,726.01h-3.38v-7.23c0-.89-.15-1.56-.45-2.01-.3-.45-.77-.67-1.41-.67-.86,0-1.49,.32-1.88,.95-.39,.63-.59,1.68-.59,3.13v5.82h-3.38v-12.38h2.58l.45,1.58h.19c.33-.57,.81-1.01,1.44-1.33,.63-.32,1.35-.48,2.16-.48,1.85,0,3.11,.61,3.76,1.82h.3c.33-.58,.82-1.02,1.47-1.34,.65-.32,1.38-.48,2.19-.48,1.4,0,2.46,.36,3.18,1.08s1.08,1.87,1.08,3.46v8.07h-3.39v-7.23c0-.89-.15-1.56-.45-2.01s-.77-.67-1.41-.67c-.83,0-1.45,.29-1.86,.89-.41,.59-.61,1.53-.61,2.81v6.21Z"/><path class="d" d="M136.76,726.01l-.65-1.68h-.09c-.57,.72-1.15,1.21-1.75,1.49-.6,.28-1.39,.42-2.35,.42-1.19,0-2.12-.34-2.81-1.02-.68-.68-1.02-1.65-1.02-2.9s.46-2.28,1.38-2.91c.92-.62,2.3-.97,4.16-1.04l2.15-.07v-.54c0-1.25-.64-1.88-1.93-1.88-.99,0-2.15,.3-3.49,.9l-1.12-2.28c1.42-.75,3-1.12,4.74-1.12s2.93,.36,3.82,1.08,1.33,1.82,1.33,3.3v8.25h-2.36Zm-1-5.74l-1.31,.04c-.98,.03-1.71,.21-2.19,.53-.48,.33-.72,.82-.72,1.48,0,.95,.55,1.43,1.64,1.43,.78,0,1.41-.22,1.88-.67s.7-1.05,.7-1.79v-1.02Z"/><path class="d" d="M142.45,710.43c0-1.1,.61-1.65,1.84-1.65s1.84,.55,1.84,1.65c0,.52-.15,.93-.46,1.22-.31,.29-.77,.44-1.38,.44-1.23,0-1.84-.55-1.84-1.66Zm3.52,15.58h-3.38v-12.38h3.38v12.38Z"/><path class="d" d="M160.94,726.01h-3.38v-7.23c0-.89-.16-1.56-.48-2.01s-.82-.67-1.52-.67c-.94,0-1.63,.32-2.05,.95-.42,.63-.63,1.68-.63,3.14v5.82h-3.38v-12.38h2.58l.45,1.58h.19c.38-.6,.89-1.05,1.56-1.36,.66-.31,1.41-.46,2.25-.46,1.44,0,2.53,.39,3.28,1.17,.75,.78,1.12,1.9,1.12,3.37v8.07Z"/><path class="d" d="M163.62,721.12l7.57-3.11-7.57-3.51v-2.66l11,5.49v1.58l-11,4.85v-2.65Z"/><path class="d" d="M193.45,723.77l-11-4.85v-1.58l11-5.49v2.66l-7.57,3.51,7.57,3.11v2.65Z"/><path class="d" d="M203.69,709.83l-6.03,16.19h-3.07l6.03-16.19h3.07Z"/><path class="d" d="M216.65,726.01h-3.38v-7.23c0-.89-.15-1.56-.45-2.01-.3-.45-.77-.67-1.41-.67-.86,0-1.49,.32-1.88,.95-.39,.63-.59,1.68-.59,3.13v5.82h-3.38v-12.38h2.58l.45,1.58h.19c.33-.57,.81-1.01,1.44-1.33,.63-.32,1.35-.48,2.16-.48,1.85,0,3.11,.61,3.76,1.82h.3c.33-.58,.82-1.02,1.47-1.34,.65-.32,1.38-.48,2.19-.48,1.4,0,2.46,.36,3.18,1.08s1.08,1.87,1.08,3.46v8.07h-3.39v-7.23c0-.89-.15-1.56-.45-2.01s-.77-.67-1.41-.67c-.83,0-1.45,.29-1.86,.89-.41,.59-.61,1.53-.61,2.81v6.21Z"/><path class="d" d="M235.7,726.01l-.65-1.68h-.09c-.57,.72-1.15,1.21-1.75,1.49-.6,.28-1.39,.42-2.35,.42-1.19,0-2.12-.34-2.81-1.02-.68-.68-1.02-1.65-1.02-2.9s.46-2.28,1.38-2.91c.92-.62,2.3-.97,4.16-1.04l2.15-.07v-.54c0-1.25-.64-1.88-1.93-1.88-.99,0-2.15,.3-3.49,.9l-1.12-2.28c1.42-.75,3-1.12,4.74-1.12s2.93,.36,3.82,1.08,1.33,1.82,1.33,3.3v8.25h-2.36Zm-1-5.74l-1.31,.04c-.98,.03-1.71,.21-2.19,.53-.48,.33-.72,.82-.72,1.48,0,.95,.55,1.43,1.64,1.43,.78,0,1.41-.22,1.88-.67s.7-1.05,.7-1.79v-1.02Z"/><path class="d" d="M241.39,710.43c0-1.1,.61-1.65,1.84-1.65s1.84,.55,1.84,1.65c0,.52-.15,.93-.46,1.22-.31,.29-.77,.44-1.38,.44-1.23,0-1.84-.55-1.84-1.66Zm3.52,15.58h-3.38v-12.38h3.38v12.38Z"/><path class="d" d="M259.88,726.01h-3.38v-7.23c0-.89-.16-1.56-.48-2.01s-.82-.67-1.52-.67c-.94,0-1.63,.32-2.05,.95-.42,.63-.63,1.68-.63,3.14v5.82h-3.38v-12.38h2.58l.45,1.58h.19c.38-.6,.89-1.05,1.56-1.36,.66-.31,1.41-.46,2.25-.46,1.44,0,2.53,.39,3.28,1.17,.75,.78,1.12,1.9,1.12,3.37v8.07Z"/><path class="d" d="M262.56,721.12l7.57-3.11-7.57-3.51v-2.66l11,5.49v1.58l-11,4.85v-2.65Z"/><path class="d" d="M127.45,774.79l-11-4.85v-1.58l11-5.49v2.66l-7.57,3.51,7.57,3.11v2.65Z"/><path class="d" d="M137.04,767.19h-2.92v9.84h-3.38v-9.84h-1.86v-1.63l1.86-.91v-.91c0-1.41,.35-2.44,1.04-3.09,.69-.65,1.8-.97,3.33-.97,1.17,0,2.2,.17,3.11,.52l-.86,2.48c-.68-.21-1.31-.32-1.88-.32-.48,0-.83,.14-1.04,.43s-.32,.65-.32,1.09v.77h2.92v2.54Z"/><path class="d" d="M150.22,770.83c0,2.02-.53,3.59-1.59,4.73-1.06,1.14-2.54,1.71-4.44,1.71-1.19,0-2.24-.26-3.15-.78-.91-.52-1.61-1.27-2.09-2.24-.49-.97-.73-2.11-.73-3.41,0-2.02,.53-3.59,1.58-4.72,1.05-1.12,2.54-1.68,4.45-1.68,1.19,0,2.24,.26,3.14,.78s1.61,1.26,2.09,2.23,.73,2.1,.73,3.4Zm-8.56,0c0,1.23,.2,2.15,.6,2.78,.4,.63,1.06,.94,1.97,.94s1.55-.31,1.94-.94c.39-.62,.59-1.55,.59-2.79s-.2-2.14-.6-2.76c-.4-.61-1.05-.92-1.96-.92s-1.55,.3-1.95,.91-.6,1.53-.6,2.76Z"/><path class="d" d="M164.26,770.83c0,2.02-.53,3.59-1.59,4.73-1.06,1.14-2.54,1.71-4.44,1.71-1.19,0-2.24-.26-3.15-.78-.91-.52-1.61-1.27-2.09-2.24-.49-.97-.73-2.11-.73-3.41,0-2.02,.53-3.59,1.58-4.72,1.05-1.12,2.54-1.68,4.45-1.68,1.19,0,2.24,.26,3.14,.78s1.61,1.26,2.09,2.23,.73,2.1,.73,3.4Zm-8.56,0c0,1.23,.2,2.15,.6,2.78,.4,.63,1.06,.94,1.97,.94s1.55-.31,1.94-.94c.39-.62,.59-1.55,.59-2.79s-.2-2.14-.6-2.76c-.4-.61-1.05-.92-1.96-.92s-1.55,.3-1.95,.91-.6,1.53-.6,2.76Z"/><path class="d" d="M172.27,774.57c.59,0,1.3-.13,2.13-.39v2.51c-.84,.38-1.88,.56-3.1,.56-1.35,0-2.33-.34-2.95-1.02s-.92-1.71-.92-3.07v-5.97h-1.62v-1.43l1.86-1.13,.97-2.61h2.16v2.63h3.47v2.54h-3.47v5.97c0,.48,.13,.83,.4,1.06s.63,.34,1.07,.34Z"/><path class="d" d="M182.5,777.26c-1.99,0-3.55-.55-4.67-1.65-1.12-1.1-1.68-2.66-1.68-4.67s.52-3.68,1.56-4.81,2.47-1.7,4.3-1.7,3.11,.5,4.09,1.5c.97,1,1.46,2.37,1.46,4.13v1.64h-7.98c.04,.96,.32,1.71,.85,2.25,.53,.54,1.28,.81,2.24,.81,.75,0,1.45-.08,2.12-.23s1.36-.4,2.08-.74v2.61c-.59,.29-1.22,.51-1.89,.66-.67,.14-1.49,.22-2.46,.22Zm-.48-10.43c-.72,0-1.28,.23-1.68,.68-.41,.45-.64,1.1-.7,1.93h4.74c-.01-.83-.23-1.48-.65-1.93s-.99-.68-1.71-.68Z"/><path class="d" d="M197.21,764.43c.46,0,.84,.03,1.14,.1l-.25,3.17c-.27-.07-.61-.11-1-.11-1.08,0-1.92,.28-2.52,.83-.6,.55-.9,1.33-.9,2.33v6.3h-3.38v-12.38h2.56l.5,2.08h.17c.38-.69,.9-1.25,1.56-1.68,.65-.42,1.36-.64,2.13-.64Z"/><path class="d" d="M199.8,772.14l7.57-3.11-7.57-3.51v-2.66l11,5.49v1.58l-11,4.85v-2.65Z"/><path class="d" d="M229.63,774.79l-11-4.85v-1.58l11-5.49v2.66l-7.57,3.51,7.57,3.11v2.65Z"/><path class="d" d="M239.86,760.85l-6.03,16.19h-3.07l6.03-16.19h3.07Z"/><path class="d" d="M248.58,767.19h-2.92v9.84h-3.38v-9.84h-1.86v-1.63l1.86-.91v-.91c0-1.41,.35-2.44,1.04-3.09,.69-.65,1.8-.97,3.33-.97,1.17,0,2.2,.17,3.11,.52l-.86,2.48c-.68-.21-1.31-.32-1.88-.32-.48,0-.83,.14-1.04,.43s-.32,.65-.32,1.09v.77h2.92v2.54Z"/><path class="d" d="M261.77,770.83c0,2.02-.53,3.59-1.59,4.73-1.06,1.14-2.54,1.71-4.44,1.71-1.19,0-2.24-.26-3.15-.78-.91-.52-1.61-1.27-2.09-2.24-.49-.97-.73-2.11-.73-3.41,0-2.02,.53-3.59,1.58-4.72,1.05-1.12,2.54-1.68,4.45-1.68,1.19,0,2.24,.26,3.14,.78s1.61,1.26,2.09,2.23,.73,2.1,.73,3.4Zm-8.56,0c0,1.23,.2,2.15,.6,2.78,.4,.63,1.06,.94,1.97,.94s1.55-.31,1.94-.94c.39-.62,.59-1.55,.59-2.79s-.2-2.14-.6-2.76c-.4-.61-1.05-.92-1.96-.92s-1.55,.3-1.95,.91-.6,1.53-.6,2.76Z"/><path class="d" d="M275.81,770.83c0,2.02-.53,3.59-1.59,4.73-1.06,1.14-2.54,1.71-4.44,1.71-1.19,0-2.24-.26-3.15-.78-.91-.52-1.61-1.27-2.09-2.24-.49-.97-.73-2.11-.73-3.41,0-2.02,.53-3.59,1.58-4.72,1.05-1.12,2.54-1.68,4.45-1.68,1.19,0,2.24,.26,3.14,.78s1.61,1.26,2.09,2.23,.73,2.1,.73,3.4Zm-8.56,0c0,1.23,.2,2.15,.6,2.78,.4,.63,1.06,.94,1.97,.94s1.55-.31,1.94-.94c.39-.62,.59-1.55,.59-2.79s-.2-2.14-.6-2.76c-.4-.61-1.05-.92-1.96-.92s-1.55,.3-1.95,.91-.6,1.53-.6,2.76Z"/><path class="d" d="M283.82,774.57c.59,0,1.3-.13,2.13-.39v2.51c-.84,.38-1.88,.56-3.1,.56-1.35,0-2.33-.34-2.95-1.02s-.92-1.71-.92-3.07v-5.97h-1.62v-1.43l1.86-1.13,.97-2.61h2.16v2.63h3.47v2.54h-3.47v5.97c0,.48,.13,.83,.4,1.06s.63,.34,1.07,.34Z"/><path class="d" d="M294.05,777.26c-1.99,0-3.55-.55-4.67-1.65-1.12-1.1-1.68-2.66-1.68-4.67s.52-3.68,1.56-4.81,2.47-1.7,4.3-1.7,3.11,.5,4.09,1.5c.97,1,1.46,2.37,1.46,4.13v1.64h-7.98c.04,.96,.32,1.71,.85,2.25,.53,.54,1.28,.81,2.24,.81,.75,0,1.45-.08,2.12-.23s1.36-.4,2.08-.74v2.61c-.59,.29-1.22,.51-1.89,.66-.67,.14-1.49,.22-2.46,.22Zm-.48-10.43c-.72,0-1.28,.23-1.68,.68-.41,.45-.64,1.1-.7,1.93h4.74c-.01-.83-.23-1.48-.65-1.93s-.99-.68-1.71-.68Z"/><path class="d" d="M308.75,764.43c.46,0,.84,.03,1.14,.1l-.25,3.17c-.27-.07-.61-.11-1-.11-1.08,0-1.92,.28-2.52,.83-.6,.55-.9,1.33-.9,2.33v6.3h-3.38v-12.38h2.56l.5,2.08h.17c.38-.69,.9-1.25,1.56-1.68,.65-.42,1.36-.64,2.13-.64Z"/><path class="d" d="M311.34,772.14l7.57-3.11-7.57-3.51v-2.66l11,5.49v1.58l-11,4.85v-2.65Z"/><path class="d" d="M109.78,825.81l-11-4.85v-1.58l11-5.49v2.66l-7.57,3.51,7.57,3.11v2.65Z"/><path class="d" d="M121.16,824.39c0,1.27-.44,2.24-1.32,2.9-.88,.67-2.2,1-3.96,1-.9,0-1.67-.06-2.3-.18-.63-.12-1.23-.3-1.78-.54v-2.79c.63,.3,1.33,.54,2.12,.74s1.48,.3,2.08,.3c1.23,0,1.84-.35,1.84-1.06,0-.27-.08-.48-.24-.65-.16-.17-.44-.35-.84-.56-.4-.21-.93-.46-1.59-.74-.95-.4-1.65-.77-2.1-1.11-.45-.34-.77-.73-.97-1.17s-.3-.98-.3-1.62c0-1.1,.43-1.95,1.28-2.55,.85-.6,2.06-.9,3.63-.9s2.94,.33,4.35,.97l-1.02,2.44c-.62-.27-1.2-.48-1.74-.65s-1.09-.25-1.65-.25c-1,0-1.49,.27-1.49,.81,0,.3,.16,.56,.48,.79,.32,.22,1.02,.55,2.11,.99,.97,.39,1.68,.76,2.13,1.1,.45,.34,.78,.73,1,1.17,.21,.44,.32,.97,.32,1.58Z"/><path class="d" d="M128.82,828.28c-3.85,0-5.78-2.12-5.78-6.34,0-2.1,.52-3.71,1.57-4.82s2.55-1.67,4.51-1.67c1.43,0,2.72,.28,3.85,.84l-1,2.61c-.53-.21-1.03-.39-1.48-.53-.46-.14-.92-.2-1.37-.2-1.76,0-2.64,1.25-2.64,3.74s.88,3.63,2.64,3.63c.65,0,1.25-.09,1.8-.26,.55-.17,1.11-.45,1.66-.81v2.89c-.55,.35-1.1,.59-1.66,.72s-1.26,.2-2.11,.2Z"/><path class="d" d="M142.36,815.45c.46,0,.84,.03,1.14,.1l-.25,3.17c-.27-.07-.61-.11-1-.11-1.08,0-1.92,.28-2.52,.83-.6,.55-.9,1.33-.9,2.33v6.3h-3.38v-12.38h2.56l.5,2.08h.17c.38-.69,.9-1.25,1.56-1.68,.65-.42,1.36-.64,2.13-.64Z"/><path class="d" d="M145.61,812.48c0-1.1,.61-1.65,1.84-1.65s1.84,.55,1.84,1.65c0,.52-.15,.93-.46,1.22-.31,.29-.77,.44-1.38,.44-1.23,0-1.84-.55-1.84-1.66Zm3.52,15.58h-3.38v-12.38h3.38v12.38Z"/><path class="d" d="M159.47,828.28c-1.45,0-2.59-.53-3.42-1.58h-.18c.12,1.03,.18,1.63,.18,1.79v5.02h-3.38v-17.83h2.75l.48,1.61h.15c.79-1.23,1.96-1.84,3.51-1.84,1.46,0,2.61,.57,3.43,1.69,.83,1.13,1.24,2.7,1.24,4.71,0,1.32-.19,2.47-.58,3.44-.39,.97-.94,1.72-1.66,2.23-.72,.51-1.56,.76-2.52,.76Zm-1-10.13c-.83,0-1.44,.26-1.83,.77s-.58,1.36-.6,2.54v.37c0,1.33,.2,2.28,.59,2.86,.39,.58,1.02,.86,1.88,.86,1.51,0,2.27-1.25,2.27-3.74,0-1.22-.19-2.13-.56-2.74-.37-.61-.96-.91-1.75-.91Z"/><path class="d" d="M172.24,825.59c.59,0,1.3-.13,2.13-.39v2.51c-.84,.38-1.88,.56-3.1,.56-1.35,0-2.33-.34-2.95-1.02s-.92-1.71-.92-3.07v-5.97h-1.62v-1.43l1.86-1.13,.97-2.61h2.16v2.63h3.47v2.54h-3.47v5.97c0,.48,.13,.83,.4,1.06s.63,.34,1.07,.34Z"/><path class="d" d="M191.39,824.39c0,1.27-.44,2.24-1.32,2.9-.88,.67-2.2,1-3.96,1-.9,0-1.67-.06-2.3-.18-.63-.12-1.23-.3-1.78-.54v-2.79c.63,.3,1.33,.54,2.12,.74s1.48,.3,2.08,.3c1.23,0,1.84-.35,1.84-1.06,0-.27-.08-.48-.24-.65-.16-.17-.44-.35-.84-.56-.4-.21-.93-.46-1.59-.74-.95-.4-1.65-.77-2.1-1.11-.45-.34-.77-.73-.97-1.17s-.3-.98-.3-1.62c0-1.1,.43-1.95,1.28-2.55,.85-.6,2.06-.9,3.63-.9s2.94,.33,4.35,.97l-1.02,2.44c-.62-.27-1.2-.48-1.74-.65s-1.09-.25-1.65-.25c-1,0-1.49,.27-1.49,.81,0,.3,.16,.56,.48,.79,.32,.22,1.02,.55,2.11,.99,.97,.39,1.68,.76,2.13,1.1,.45,.34,.78,.73,1,1.17,.21,.44,.32,.97,.32,1.58Z"/><path class="d" d="M200.94,815.45c.46,0,.84,.03,1.14,.1l-.25,3.17c-.27-.07-.61-.11-1-.11-1.08,0-1.92,.28-2.52,.83-.6,.55-.9,1.33-.9,2.33v6.3h-3.38v-12.38h2.56l.5,2.08h.17c.38-.69,.9-1.25,1.56-1.68,.65-.42,1.36-.64,2.13-.64Z"/><path class="d" d="M209.36,828.28c-3.85,0-5.78-2.12-5.78-6.34,0-2.1,.52-3.71,1.57-4.82s2.55-1.67,4.51-1.67c1.43,0,2.72,.28,3.85,.84l-1,2.61c-.53-.21-1.03-.39-1.48-.53-.46-.14-.92-.2-1.37-.2-1.76,0-2.64,1.25-2.64,3.74s.88,3.63,2.64,3.63c.65,0,1.25-.09,1.8-.26,.55-.17,1.11-.45,1.66-.81v2.89c-.55,.35-1.1,.59-1.66,.72s-1.26,.2-2.11,.2Z"/><path class="d" d="M215.19,819.15v-2.42h11v2.42h-11Zm0,4.29v-2.42h11v2.42h-11Z"/><path class="d" d="M231.72,811.87l-.45,5.85h-2.18l-.45-5.85h3.09Zm4.67,0l-.45,5.85h-2.18l-.45-5.85h3.09Z"/><path class="d" d="M242.43,811.87l-.45,5.85h-2.18l-.45-5.85h3.09Zm4.67,0l-.45,5.85h-2.18l-.45-5.85h3.09Z"/><path class="d" d="M249.55,823.17l7.57-3.11-7.57-3.51v-2.66l11,5.49v1.58l-11,4.85v-2.65Z"/><path class="d" d="M273.49,825.81l-11-4.85v-1.58l11-5.49v2.66l-7.57,3.51,7.57,3.11v2.65Z"/><path class="d" d="M283.72,811.87l-6.03,16.19h-3.07l6.03-16.19h3.07Z"/><path class="d" d="M294.24,824.39c0,1.27-.44,2.24-1.32,2.9-.88,.67-2.2,1-3.96,1-.9,0-1.67-.06-2.3-.18-.63-.12-1.23-.3-1.78-.54v-2.79c.63,.3,1.33,.54,2.12,.74s1.48,.3,2.08,.3c1.23,0,1.84-.35,1.84-1.06,0-.27-.08-.48-.24-.65-.16-.17-.44-.35-.84-.56-.4-.21-.93-.46-1.59-.74-.95-.4-1.65-.77-2.1-1.11-.45-.34-.77-.73-.97-1.17s-.3-.98-.3-1.62c0-1.1,.43-1.95,1.28-2.55,.85-.6,2.06-.9,3.63-.9s2.94,.33,4.35,.97l-1.02,2.44c-.62-.27-1.2-.48-1.74-.65s-1.09-.25-1.65-.25c-1,0-1.49,.27-1.49,.81,0,.3,.16,.56,.48,.79,.32,.22,1.02,.55,2.11,.99,.97,.39,1.68,.76,2.13,1.1,.45,.34,.78,.73,1,1.17,.21,.44,.32,.97,.32,1.58Z"/><path class="d" d="M301.9,828.28c-3.85,0-5.78-2.12-5.78-6.34,0-2.1,.52-3.71,1.57-4.82s2.55-1.67,4.51-1.67c1.43,0,2.72,.28,3.85,.84l-1,2.61c-.53-.21-1.03-.39-1.48-.53-.46-.14-.92-.2-1.37-.2-1.76,0-2.64,1.25-2.64,3.74s.88,3.63,2.64,3.63c.65,0,1.25-.09,1.8-.26,.55-.17,1.11-.45,1.66-.81v2.89c-.55,.35-1.1,.59-1.66,.72s-1.26,.2-2.11,.2Z"/><path class="d" d="M315.44,815.45c.46,0,.84,.03,1.14,.1l-.25,3.17c-.27-.07-.61-.11-1-.11-1.08,0-1.92,.28-2.52,.83-.6,.55-.9,1.33-.9,2.33v6.3h-3.38v-12.38h2.56l.5,2.08h.17c.38-.69,.9-1.25,1.56-1.68,.65-.42,1.36-.64,2.13-.64Z"/><path class="d" d="M318.69,812.48c0-1.1,.61-1.65,1.84-1.65s1.84,.55,1.84,1.65c0,.52-.15,.93-.46,1.22-.31,.29-.77,.44-1.38,.44-1.23,0-1.84-.55-1.84-1.66Zm3.52,15.58h-3.38v-12.38h3.38v12.38Z"/><path class="d" d="M332.55,828.28c-1.45,0-2.59-.53-3.42-1.58h-.18c.12,1.03,.18,1.63,.18,1.79v5.02h-3.38v-17.83h2.75l.48,1.61h.15c.79-1.23,1.96-1.84,3.51-1.84,1.46,0,2.61,.57,3.43,1.69,.83,1.13,1.24,2.7,1.24,4.71,0,1.32-.19,2.47-.58,3.44-.39,.97-.94,1.72-1.66,2.23-.72,.51-1.56,.76-2.52,.76Zm-1-10.13c-.83,0-1.44,.26-1.83,.77s-.58,1.36-.6,2.54v.37c0,1.33,.2,2.28,.59,2.86,.39,.58,1.02,.86,1.88,.86,1.51,0,2.27-1.25,2.27-3.74,0-1.22-.19-2.13-.56-2.74-.37-.61-.96-.91-1.75-.91Z"/><path class="d" d="M345.32,825.59c.59,0,1.3-.13,2.13-.39v2.51c-.84,.38-1.88,.56-3.1,.56-1.35,0-2.33-.34-2.95-1.02s-.92-1.71-.92-3.07v-5.97h-1.62v-1.43l1.86-1.13,.97-2.61h2.16v2.63h3.47v2.54h-3.47v5.97c0,.48,.13,.83,.4,1.06s.63,.34,1.07,.34Z"/><path class="d" d="M349.15,823.17l7.57-3.11-7.57-3.51v-2.66l11,5.49v1.58l-11,4.85v-2.65Z"/></g></g></g><g id="c"/></svg>