<svg xmlns="http://www.w3.org/2000/svg" width="841.22" height="946.61" viewBox="0 0 841.22 946.61"><defs><style>.cls-1{fill:none;}.cls-1,.cls-2{stroke:#000;stroke-miterlimit:10;}</style></defs><g id="Layer_6" data-name="Layer 6"><g id="Ochi_drept" data-name="Ochi drept"><path class="cls-1" d="M486.88,324.62c-1.32-2.65,5.88-8.8,9.53-11.91a62.5,62.5,0,0,1,16.34-10.56c13.3-5.8,28.6-5.1,28.6-5.1a68.16,68.16,0,0,1,33.89,11.2,58.63,58.63,0,0,1-12.45,12.29,48.33,48.33,0,0,1-12.25,6.81c-11,4-21.21,2.36-28.77,1.19-8.55-1.33-7.93-2.79-15.48-3.47C494.7,324,488.06,327,486.88,324.62Z"/><path class="cls-1" d="M498.41,311A10.45,10.45,0,0,0,502,324.82"/><path class="cls-1" d="M522.09,299a15.73,15.73,0,0,0-5.59,10.48c-.61,7.29,4.58,12.1,6,13.28,6.36,5.42,14.26,3.85,15.66,3.57,1.93-.38,8.39-1.66,11.92-7.66a16.55,16.55,0,0,0,1.36-12.76,17.77,17.77,0,0,0-5.43-8.47"/><circle class="cls-2" cx="533.31" cy="309.73" r="5.28"/><circle class="cls-1" cx="524.7" cy="305.08" r="3.1"/><path class="cls-2" d="M506.1,305.57a96.65,96.65,0,0,1,24.35-9.8,67.65,67.65,0,0,1,9.66-1.79,61.76,61.76,0,0,1,22,1.54c14.77,3.78,18,10.15,30.77,10.72a40.19,40.19,0,0,0,9.44-.7c-9,7.23-15.34,7-18.35,6.48-1.4-.26-3.85-1.43-8.69-3.77-8.48-4.08-10.3-5.46-14.29-7.16a65.82,65.82,0,0,0-15.41-4C528.43,294.74,512.89,301.93,506.1,305.57Z"/><path class="cls-1" d="M482.3,311.19a63.82,63.82,0,0,1,16-21.45s8.21-7.16,17.7-10.89c17.56-6.9,42.15-.79,63.66,15.32"/></g><g id="Ochi_stan" data-name="Ochi stan"><path class="cls-1" d="M307.65,337.39a63.77,63.77,0,0,1,15.57-13.28A56.42,56.42,0,0,1,340.33,317a59.66,59.66,0,0,1,16.08-1.27,63.09,63.09,0,0,1,25.53,6.89c4.46,2.15,10.92,5.28,10.47,7.91-.37,2.19-5.2,2.49-11.49,4.34-11.26,3.33-11.68,7.08-20.17,10.22-13.52,5-27.35,1.07-38.3-2.05a92.19,92.19,0,0,1-14.8-5.61"/><path class="cls-1" d="M384.13,323.65a14.47,14.47,0,0,0-3.21,11.18"/><path class="cls-1" d="M334.83,318.54c-.66.86-4.87,6.53-3.14,13.42a15,15,0,0,0,4.46,7.3,18.84,18.84,0,0,0,13.36,4.85c7.43-.36,16.05-5.51,17.62-14,1.28-6.89-2.74-12.43-3.68-13.67"/><circle class="cls-2" cx="348.37" cy="328.67" r="5.28"/><circle class="cls-1" cx="339.46" cy="324.58" r="3.2"/><path class="cls-2" d="M281.6,333.3c.15-.48,4.64,1.5,9.53.85,5.93-.78,8.9-5,13.45-8.85,7-6,14.2-8.25,20.43-10.21,16.46-5.18,31.6-1.26,38.49.53a99.82,99.82,0,0,1,17.77,6.64,68.69,68.69,0,0,0-13-4.81,80.5,80.5,0,0,0-10.73-2.15,59.8,59.8,0,0,0-18.32,1.47c-17,4.22-28.82,17.39-31.59,20.62a42.1,42.1,0,0,1-20-1.21C284.61,335.18,281.48,333.7,281.6,333.3Z"/><path class="cls-1" d="M390.37,320.28a53,53,0,0,0-38.3-22.47,55.45,55.45,0,0,0-25,3.58,62.62,62.62,0,0,0-15.32,8.93c-4.78,4-7.21,7.42-14,12.26a75.56,75.56,0,0,1-6.9,4.34"/></g><g id="Nas"><path class="cls-1" d="M461,292.28a83.6,83.6,0,0,0-13.62,39.15c-.53,7-1.5,31.91,14,53.79,11.71,16.58,31.95,30.09,31.78,43.2a20.26,20.26,0,0,1-1.14,6.16c-3,8-11.19,11.45-14.3,12.6"/><path class="cls-1" d="M388.5,303.18A70.92,70.92,0,0,1,407.9,328c11.45,24.83,4.71,50.74,3.06,56.51-2.69,9.43-7.75,20.84-13.27,42.89-1.14,4.55-2.63,10.9.68,16.34,4.66,7.66,15.72,8.4,18.72,8.51"/><path class="cls-1" d="M410.28,442.24c-1.09-2.14.77-5.41,2.6-7.19a5.53,5.53,0,0,1,2.77-1.79c2.82-.6,5.82,1.91,6.89,4.55.57,1.41.84,3.47.08,3.92-1,.62-2.82-2.29-5.27-1.79A5.92,5.92,0,0,0,415,441.3c-1.69,1.29-2,2.27-2.94,2.26A2.31,2.31,0,0,1,410.28,442.24Z"/><path class="cls-1" d="M449.84,440.76c-1.49-1.21,1.45-12.12,9-13.76,7-1.52,14,5.82,13.25,7.71-.57,1.44-5.36-.93-12.51,1.23C453.25,437.84,450.81,441.55,449.84,440.76Z"/></g><g id="Sprancene"><path class="cls-1" d="M572.64,244.84a2.66,2.66,0,0,0-.31-.47l-.07-.07a1.78,1.78,0,0,1-.61-.2l-.08,0A3.89,3.89,0,0,1,572.64,244.84Z"/><path class="cls-1" d="M593.79,252c-1.21-.77-2.4-1.46-3.59-2.13l.17.22A4.14,4.14,0,0,1,591,253a5.68,5.68,0,0,1-.65,2,7.46,7.46,0,0,0-.25-3.48,12,12,0,0,0-1.19-2.4,76.89,76.89,0,0,0-14.7-6c.2.18.39.34.54.45,1.07.8,1.71.69,2,1.22.15.33.16.92-.68,2,.63-1.3.42-1.84.11-2.1s-.93-.09-1.75-.52a2,2,0,0,1-.32-.2,1.53,1.53,0,0,1-.9.67c0,.26-.15.51-.27.51s0,0-.06,0a2.36,2.36,0,0,1,0,1.55,2.17,2.17,0,0,0-.42-1.76c-.27-.31-.47-.28-1.24-.85l-.28-.22-1-.32a.63.63,0,0,0,.12.11c1,.81,1.59.82,1.91,1.53a2.36,2.36,0,0,1,0,1.57,2.21,2.21,0,0,0-.42-1.76c-.27-.31-.47-.28-1.24-.85a7.34,7.34,0,0,1-.86-.74l-2.18-.71-15.35.85a4.73,4.73,0,0,1-.64,1.36,4.15,4.15,0,0,1-2.53,1.62,5.61,5.61,0,0,1-2.11.1,7.27,7.27,0,0,0,3.16-1.46,9.2,9.2,0,0,0,1.53-1.59l-26.94,1.5s-7.64,1-24.24,4.45c-.7.78-1.62,1.75-2.75,2.83-3.28,3.1-6.92,5.69-7.15,5.43s1.92-1.56,4.23-4.9c.66-1,1.16-1.8,1.62-2.49q-5.31,1.14-11.67,2.62l-3.41.81-.7.63c-3.38,2.94-7,5.49-7.24,5.29s2-1.5,4.46-4.54c.18-.21.33-.41.48-.61-6.13,1.68-10.08,3.52-12.13,7.23a1.49,1.49,0,0,1,.2-.15,3.75,3.75,0,0,1,1.92-.56,4.47,4.47,0,0,1,1.36.13,6.74,6.74,0,0,0-2.3.43,10.72,10.72,0,0,0-1.49.74,12.7,12.7,0,0,0-1.08,6.51c0-.1.06-.19.1-.29a4.4,4.4,0,0,1,1.21-1.6,5.36,5.36,0,0,1,1.12-.75,8.16,8.16,0,0,0-1.57,1.74,11.83,11.83,0,0,0-.8,1.49,29.62,29.62,0,0,0,4.25,11.29c4.47-1.15,10.82-2.8,18.47-4.82a24.92,24.92,0,0,0,2.4-3.69,16.9,16.9,0,0,0,1.67-5.74,11.37,11.37,0,0,1,0,3.5,9.08,9.08,0,0,1-1.93,4.75,7.4,7.4,0,0,1-.76.81l2.35-.63,6.88-1.84c.29-.26.59-.55.89-.87a15.48,15.48,0,0,0,2.6-3.75,9.86,9.86,0,0,1-.93,2.46,10.3,10.3,0,0,1-1.17,1.79l4.75-1.29a24,24,0,0,0,2.46-1.82,19.33,19.33,0,0,0,3.43-3.83,12.88,12.88,0,0,1-1.44,2.57,11.55,11.55,0,0,1-2.38,2.51c5.83-1.6,8-2.23,13.5-3.61,3.13-.78,6-1.5,8.77-2.16a37.89,37.89,0,0,1,3.76-4.72,19.24,19.24,0,0,1,4.15-2.82c6-3.2,17.87-5.62,18.88-5.82l-14.65,5.38a25.38,25.38,0,0,0-4.32,2.38,29.64,29.64,0,0,0-3.62,3c-.88.81-1.63,1.52-2.28,2.13a196.18,196.18,0,0,1,28.48-5c4.49-.44,8-.78,11.12-.95a10.89,10.89,0,0,1,1.1-1.32,8.13,8.13,0,0,1,1.72-1.18,36.93,36.93,0,0,1,7.84-2.41L574.55,256a11.54,11.54,0,0,0-1.8,1,13.56,13.56,0,0,0-1.5,1.25l-.43.4a50.87,50.87,0,0,1,10.53.46,61.33,61.33,0,0,1,17.77,5.6,3.57,3.57,0,0,1,.42-.51,2.72,2.72,0,0,1,1.83-.89,2.11,2.11,0,0,1,1.39.3c0,.16-1,.08-2,.47a4.6,4.6,0,0,0-1.34.75c9.23,4.54,14.43,9.65,15.33,8.57C616,271.88,606.94,260.32,593.79,252Z"/><path class="cls-1" d="M290.53,268c1.9-.63,4-1.12,5.55-1.49,2.14-.51,4.57-1,7.26-1.43a4.4,4.4,0,0,0,.78,1.21,4,4,0,0,0,2.62,1.24,5.61,5.61,0,0,0,2-.17,7.06,7.06,0,0,1-3.22-1A9.68,9.68,0,0,1,303.9,265a158,158,0,0,1,25.62-1.16l6.8.34,16.86.85a5.35,5.35,0,0,1,2,.54,6.57,6.57,0,0,1,1.4,1.06c3.52,2.56,7.32,4.58,7.51,4.29s-1.06-.76-2.76-2.26a25.77,25.77,0,0,1-1.9-1.89c-.49-.53-.89-1-1.18-1.38a87.07,87.07,0,0,1,10.82.25c1.14.09,2.26.21,3.35.34l.76.52c3.59,2.39,7.42,4.37,7.58,4.15s-2.06-1.19-4.84-3.79c-.19-.17-.36-.34-.53-.51,6.08.83,10.08,2.1,12.51,5.39l-.21-.12a3.59,3.59,0,0,0-1.91-.3,4.74,4.74,0,0,0-1.28.3,6.42,6.42,0,0,1,2.25.12,8.91,8.91,0,0,1,1.52.52,12.24,12.24,0,0,1,1.85,6.09c0-.09-.08-.17-.13-.26a4.39,4.39,0,0,0-1.36-1.38,4.89,4.89,0,0,0-1.17-.57,7.45,7.45,0,0,1,1.72,1.46,10.5,10.5,0,0,1,.95,1.33,9.51,9.51,0,0,1-1,6.69,8.89,8.89,0,0,1-2.47,2.73c-2.48.06-5.15,0-8-.17-3.26-.21-6.28-.57-9-1a9.71,9.71,0,0,1-3.22-2.43,10,10,0,0,1-2.32-5.28,14.43,14.43,0,0,0,.41,3.36A6.12,6.12,0,0,0,366,286a4.88,4.88,0,0,0,1.28.91c-.94,0-1.9-.1-2.89-.17-1.93-.15-3.78-.35-5.53-.6a3.8,3.8,0,0,1-1.15-.28c-2.4-1-2.81-4.35-2.85-4.74a5.1,5.1,0,0,0,0,2.47,5.21,5.21,0,0,0,1.45,2.5c-.57-.06-1.17-.14-1.79-.25a25.2,25.2,0,0,1-2.6-.59,6.93,6.93,0,0,1-1.91-.91,7.38,7.38,0,0,1-2.81-4.16,8.25,8.25,0,0,0,2,5.11c-1.77-.26-4.28-.62-7.3-1-1.71-.22-3-.37-4.69-.57-3.09-.35-5.95-.68-8.66-1a35.84,35.84,0,0,0-4.19-4,18.49,18.49,0,0,0-4.32-2.18c-6.18-2.3-17.79-3.13-18.78-3.2l14.68,3.31a24.45,24.45,0,0,1,4.43,1.74,28.75,28.75,0,0,1,3.84,2.41l2.45,1.76a91.71,91.71,0,0,0-19.09-3.22,83.89,83.89,0,0,0-9.19,0,62.27,62.27,0,0,0-8.74,1,34.86,34.86,0,0,0-9.19,2.68,32.62,32.62,0,0,0-5.61,3.44,39.78,39.78,0,0,0-10.09,11.37,34.83,34.83,0,0,1,4.69-13.24A44.11,44.11,0,0,1,290.53,268Z"/></g><path class="cls-1" d="M518.54,94.83c-10.8-4.2-32.57-12.42-60.26-11.23C449.9,84,426.88,85.79,395,103,301.57,153.36,263.5,265.67,261.18,304.2c-1.11,18.4,0,38.8,0,38.8s1,18.74,4.08,37.79c13.9,86.43,62.3,157.28,62.3,157.28,9.46,18.69,27.84,47.51,61,68.68,10.65,6.79,26.5,16.68,49.48,20.49,32.51,5.4,58.17-4.87,77.41-12.58,6.3-2.51,36.93-15.16,67.53-45.06,13.94-13.63,35.18-34.38,46.86-67.28,9.23-26,4.4-36.52,10.21-77.61a394.9,394.9,0,0,1,17.36-72.51,421.72,421.72,0,0,0-10.21-72.51c-8.89-38.38-26.2-113.15-83.75-158.81A180.11,180.11,0,0,0,518.54,94.83Z"/><g id="Mouth"><path class="cls-1" d="M382,515.49c0-1.58,7-1.66,17.33-6.15a99.29,99.29,0,0,0,10-5.16c4-2.32,4.49-3,7.43-4.75,7-4.27,11.63-7.06,17.19-7s6.24,3.05,13.28,3.08a28.83,28.83,0,0,0,9.19-1.55c6.16-1.93,9-4.5,15.49-4.93,3.75-.25,4.66.88,15,4.76s15.56,5.86,19.91,6.3a79.36,79.36,0,0,0,20.43-.85c3.58-.69,5.95-1.46,6.41-.65.92,1.62-6.57,7.48-13.56,12.91-4.57,3.54-11.24,8.52-19.74,14.12a126.35,126.35,0,0,1-28.6,10.9,122.32,122.32,0,0,1-25.7,3.57,117.78,117.78,0,0,1-25.36-2,61.13,61.13,0,0,1-17.37-9.36c-5.31-4.16-7.85-7.7-14.63-10.39C384.81,516.8,382,516.51,382,515.49Z"/><path class="cls-1" d="M382,515.49c12.52,1,27.17,1.63,43.54,1.34,15.73-.29,26.94-1.32,40.34-2.56,30.39-2.8,40.71-5.66,44.09-6.64a153.91,153.91,0,0,0,23.66-9"/></g><path class="cls-1" d="M526.61,19.61A267.75,267.75,0,0,0,460.84,3.94a260,260,0,0,0-65.37,1C334.14,14.31,291.76,48.5,279.56,58.58c-97.29,80.42-101.24,216-102.13,246.64-.52,18,1,11.28,3.07,89.87,3.05,117.82-1.08,107.94,2.55,138.38C193.14,618,221.36,663.58,199.9,681.56c-7.64,6.4-22.75,10.28-36.25,6.13-13-4-20.33-14.2-23-18.39a34.25,34.25,0,0,0,8.68,18.39c7.78,8.24,17.69,9.71,24.51,10.72a56.73,56.73,0,0,0,26.55-2.55c-2.4,5.36-6.58,12.23-13.79,14.8-12.32,4.4-26.44-6.3-27.06-5.1-.46.89,6.41,8.53,16.15,9.4,15.77,1.42,24.89-16.17,31.85-13,5.79,2.66,0,15.07,4.6,33.2,6.09,24.2,23.66,31,19.91,44.42-2.69,9.65-14,14-12.77,15.83.95,1.42,8.46-.6,13.79-5.62,4-3.72,3.79-6.33,5.62-7.15,6.83-3,22.46,27.39,40.34,46,26.36,27.38,69.14,40.93,107.23,35.24,28.73-4.3,49.82-18.79,62.3-29.62,3.57-6.3,7.29-13.46,6.13-14.3-1.65-1.19-10.56,12.22-23.49,21.45-27,19.23-62.15,13.65-62.3,12.25-.11-1.06,20.07-.06,45.58-12,20.2-9.48,30-20.65,34.59-26.77,5.63-7.47,12.12-18.85,10.21-20.42-3.56-2.94-26.23,36.92-65.87,45.45-31.45,6.76-59.56-9.22-59.23-10.73s30.5,11.3,63.83,0c9.26-3.14,31.66-10.73,40.34-30.13,4.47-10,2.89-17.74,8.17-19.91,7.36-3,14,10.56,34.21,17.87,1.64.59,25.64,9,33.7-.51,3.08-3.63,3.7-9.69,2-10.72s-5.08,3.69-9.71,6.13c-14.2,7.45-36.36-9-39.32-11.24-21-15.59-27.66-39.37-26-40.34,2.23-1.33,18.7,40.74,49,43.92,12.6,1.31,24.71-4.38,24.51-5.62s-14.24,3.36-28.59-1c-16.07-4.91-24.64-18.76-37.28-39.83-15.92-26.54-10.93-29.06-28.08-58.21-8.84-15-14.21-21.25-19.92-36.26a141.28,141.28,0,0,1-8.21-33.8"/><path class="cls-1" d="M526.17,98.07a68.82,68.82,0,0,0,0-32.76,66.7,66.7,0,0,0-5.68-14.77,58.78,58.78,0,0,0-18.25-18c-18.25-11.32-71.75-22.28-143,2.38C331,44.68,296.57,56.61,263.9,88.37c-49.28,47.9-60.4,107.77-69.79,158.29-7.55,40.67-7.35,72.71-7.15,106.22.33,52.23.66,105.64,10.22,140.25a141.19,141.19,0,0,1,5.44,49c-.59,8.74-1.68,12.22-2.38,17.71-5.88,46,36,73.53,26.21,110.29-1.32,5-4.22,12.49-11.57,20.77"/><path class="cls-1" d="M512,92.38c-1.32-14.23-5.88-36.23-22.77-50-28.47-23.17-73.48-7.89-112,5.45-27.24,9.43-69,23.9-106.55,62.63-52.57,54.29-61.73,120.1-68.09,165.79-7.46,53.66,5.26,40.46,11.58,209,2,53.86,1.32,71.38,11.57,99.41C239.07,621.06,256.86,637,249.6,662c-3.54,12.19-11,19.65-23.83,52.43-3.06,7.85-5.34,14.39-6.81,18.72"/><path class="cls-1" d="M494.07,87C493,72.79,489.59,54.8,477.69,49.22c-15.55-7.29-33,12-72.51,36.42-55.09,34.07-70.47,21.92-115.75,56.51-20.67,15.8-37.45,28.95-47,52.43-10,24.58-2.17,36.32-2.38,81.7-.22,47.6-8.84,45.49-11.91,104.17-1.58,30.08-.46,52.37,1.7,95,2.31,45.84,3.47,68.75,6.47,83.75,10.37,52,29.16,73.55,37.44,131.4,1.74,12.12,3.8,31.36-7.15,48.68-6.82,10.8-16.27,17-22.8,20.43"/><path class="cls-1" d="M480.19,84.54c-14.58-8.38-27.38-10.75-37.74-10.64C434,74,418.35,76,357.69,122.41,335,139.75,320,152.93,315.3,157.13c-28.54,25.35-42.81,38-51.06,52.6-10.79,19.07-10,33.64-10.21,83.74-.5,108.17-4.51,94.89-1.53,121.53,3,27.17,8.39,72,31.66,121.54,30.51,65,57.24,64.49,83.23,133.27,14.4,38.12,16.65,65.94,16.85,82.73a225.28,225.28,0,0,1-9.7,67.91"/><path class="cls-1" d="M410.26,37.23c-7.74,15.37-17,24.7-24.49,30.54C358.49,89,331.81,81.26,310.2,103c-9.56,9.63-14,20.9-16.34,29.11"/><path class="cls-1" d="M537.58,65.08c-3.45-9.51-9.94-23-22.62-34.08C483.47,3.42,437.42,11.16,401.09,17.22,379.34,20.84,340.48,27.74,299.47,55c-93.94,62.46-110.79,173-114.38,196.6-1.81,11.92-2.23,31.78-3.06,71.49a1567.64,1567.64,0,0,0,6.64,184.34c2.4,24.69,6.16,56.87,12.25,94.47"/><path class="cls-1" d="M265.9,384.59c-1.19,29.17,1,72.29,20.81,117.73,32.17,73.89,72.52,65.92,98.55,136.34,20.61,55.76,13.44,109.74,54.64,133.28a68.81,68.81,0,0,0,14.3,6.13"/><path class="cls-1" d="M273,622.18a121.78,121.78,0,0,0,.39,30.27c6.6,47.18,38.06,63.89,50.56,104.94,4.62,15.19,8,38.19,0,70"/><path class="cls-1" d="M275.16,706.6c25.53,28.34,28.17,48.1,25.85,60.92-3.53,19.41-19.87,30.75-15.66,47,2.79,10.79,13,17.41,20.42,21.11"/><path class="cls-1" d="M315.9,695c44.41,75.74,48.8,105.43,42.3,117.45-.95,1.75-4.9,8.25-2.38,12.6,3.76,6.51,19.84,4.31,33,1.36"/><path class="cls-1" d="M286,225.45c-26.2,26.84-34.66,50.76-37.59,67.51-4,23.07,1.13,40-5.11,77.11-3.58,21.34-7.09,21.75-8.68,36.25-3.31,30.36,6.95,53.89,14.89,73.27,39.27,95.81,22.83,92.63,48.26,134,26.79,43.64,44.68,46.6,59.74,87.32A191.29,191.29,0,0,1,369,770.65"/><path class="cls-1" d="M586.49,566.18c-1,13.23-2.76,34.72-5.65,61.25-5.81,53.29-9.52,65.92-7.66,93.45,1.94,28.89,3.65,54.22,22,73,11.81,12.12,20,10.69,34.22,26,16.28,17.53,18.94,33.7,25,46.47,8.86,18.6,30.5,41.58,88.85,56.17-15.91-9.3-29-17-38.3-22.47-18.24-10.74-22-13-26.55-17.87-13.29-14.16-12.26-27.5-18.9-42.89-5.81-13.5-18.34-30.47-48-44.94-4.16-2.34-16.77-10.15-23-26-9.41-24.1,4.12-45.7,5.61-48-.09,12.75,1.71,30.85,11.75,48.51,7.95,14,15,17,27.06,29.61,34.87,36.47,20.59,57.73,49.53,79.66,14.76,11.18,21.14,7.68,50.56,27.58,14.66,9.92,23.44,18.47,24.51,17.36.77-.8-3.58-5.39-30.64-36.26a81.71,81.71,0,0,0-12.51-11.74c-7.35-5.55-12.73-7.59-12.63-7.79.2-.41,23.58,5.87,42.5,24.64,8.64,8.57,13.37,16.8,14,16.34.89-.6-6.76-15.48-16.85-30.13-3.86-5.6-7.32-10.08-6.64-10.72.83-.77,6.09,5.57,17.11,12.26a19.48,19.48,0,0,1,5.11,3.83,20.62,20.62,0,0,1,4.85,12S761,890.6,758,873.3c6.05,4.14,12.48,10.21,15.06,18.9,3.56,12-2,22.95-1,23.23s9.23-11.44,7.15-24.77c-2-12.83-11.56-14.28-13.79-26.29-2-10.86,5-13.77,9.7-31.66,6.24-23.9-.78-39.91,3.83-41.36,3.91-1.24,12.64,9.07,14.78,20.71,2.73,14.79-6,27.25-5.33,27.54s9.38-9.93,8.94-23.23c-.33-9.79-5.48-17.32-13-28.34-9-13.11-12.9-13.86-13.54-20.43-.84-8.66,5.55-12,9.45-23.74,2.06-6.24,3.77-15.85.77-29.37,3.44-11.76,5.65-27.22-1.54-40.59-12.19-22.68-41.19-20.26-49.53-41.87-3.18-8.27-.29-18.39,5.62-38.3,11.51-38.75,21.66-48.21,27.06-70,2.49-10,1.84-14.06-5.1-69.45-11.82-94.23-12.74-104.53-20.43-125.61-8.09-22.18-11.84-23.82-20.93-51.07a427.26,427.26,0,0,1-16.86-70.46c-7.95-51.87,1.42-51.24-6.12-82.22-10.89-44.72-37.12-73.66-49-85.27S612.64,9.42,581.86,2.92c-21-4.44-50.62-3.87-55.66,8.17-4.24,10.12,8.6,19.12,11.23,40.85,2.25,18.55-4.67,34.85-11.26,46.13"/><path class="cls-1" d="M573.77,130.24c-2.28-10.89-.7-20.07,4.06-22.44,7-3.5,18.84,9,20.93,11.24,15.14,16,14.24,33.44,20.94,57.19,6.1,21.62,12.91,28.67,23.49,50,19.58,39.56,26.39,76.27,34.21,118.47,2.46,13.25,12.94,72.12,10.21,151.15-2.51,72.63-3.9,108.94-20.42,150.13-18.9,47.11-43,78.45-32.74,121.33,3.45,14.48,11.48,32.66,15.32,41.36A374.67,374.67,0,0,0,683,868.45"/><path class="cls-1" d="M537.39,66.74c2.3-5.61,8.79-19.22,22.51-24.5,24.4-9.4,50.34,15.73,53.62,18.89,21.54,20.8,22.1,45.8,29.61,81.7,2.7,12.89-.22-4,36.77,107.24C721.68,375.64,742.55,438.9,741.69,462c-1.6,42.67-14.34,77.3-39.83,146.56-7.69,20.89-31.15,77.83-36.77,133.78-1.32,13.2-2.7,36.57,7.15,61.79a138.12,138.12,0,0,0,17.89,31.7,140.57,140.57,0,0,0,23.47,24.47"/><path class="cls-1" d="M654.84,360c10,15.81,22.53,40.38,26.59,71.83,7.19,55.56-16.87,96.19-32.68,137.36-16.25,42.31-31.81,106.06-24,195.57"/><path class="cls-1" d="M643.88,402.38c11.37,8.62,25.32,22.29,28.36,41.22,4.07,25.29-13.77,44.69-29.62,67.92C608.68,561.27,588.47,621.81,588,666.24c-.25,22.63,4.4,60.68,36.76,107.74"/><path class="cls-1" d="M659.18,288a533.46,533.46,0,0,1,19.19,77.45c4.79,28.24,13.44,81.64,4.59,145-8.64,61.91-33.4,129.23-43.91,157.79-5.2,14.14-17.93,47.52-12.26,89.36a159.85,159.85,0,0,0,6.13,27.07"/><path class="cls-1" d="M548.88,111c-.59-20.09,6.48-26,9-27.71C573,73,607.74,91.15,619.65,117c7.62,16.53-.08,23.29,3.06,47.49,4.24,32.73,21.22,42.79,37.79,77.11,13.4,27.75,7.35,31.64,20.93,83.74,21.1,80.93,38.4,82,41.36,126.13,1.33,19.8-6.75,49.21-23,107.23-23.24,83.11-30.57,85.43-39.32,131.24-9.79,51.22-17.44,94.4,3.57,138.2,14,29.1,35.29,47.49,49.53,57.7"/><path class="cls-1" d="M534.1,35.59c12.95-14.45,24.13-17.5,30.91-18.12,39.68-3.62,80.5,62.2,92.17,104.17,1.5,5.4,4.61,18,10.72,38.81,6.32,21.59,11.71,37.91,13.53,43.41,2.28,6.84,12.19,36.39,29.62,79.14,18.67,45.81,20.12,43.34,24,59,6.54,26.42,2.42,33.49,5.87,71.75,4.9,54.26,14.44,53.8,13.53,84.76-1,35.58-13.6,34.89-26.29,88.6-15.18,64.21,1.62,70.07-16.6,104.43-16.44,31-37.15,42.38-34.21,67.4,1.13,9.65,5,14.35,17.87,34.47,9.64,15.1,22.65,36.31,37.28,62.81"/><path class="cls-1" d="M721,645.3c3.87,8.85,15.33,31.66,40.61,43.41A74.81,74.81,0,0,0,781,694.66"/><path class="cls-1" d="M716.25,681.45a190.19,190.19,0,0,1,28,40.19c20.26,39.06,22.1,76.16,21.45,96.77"/><path class="cls-1" d="M701.09,710.41a125.94,125.94,0,0,1,24.51,35c10.81,23.2,9.11,39.22,21.7,79.4,2.79,8.87,5.33,16,6.9,20.17"/><path class="cls-1" d="M683.86,732.54c25.24,17.71,34.68,35.54,38.68,48.34,8.46,27-1.76,49.41,14,70.72,7,9.51,16.2,14.64,22.21,17.36"/><path class="cls-1" d="M458.28,83.6a232.73,232.73,0,0,0-65.87,31.15c-30.8,21.11-48.28,44.71-83.23,91.91-13.06,17.64-30.37,41.18-49.53,75.07-21.57,38.14-32.36,57.22-38.3,81.7-8.92,36.72,3.26,36.47,5.61,126.13,1.38,52.24-2.25,71.58,9.71,105.19,8.2,23,14.48,26.83,19.4,44.94,10.2,37.53-2.23,75-18.38,105.19"/><path class="cls-1" d="M547.61,109.66a111.56,111.56,0,0,0,45.23,70.2"/><path class="cls-1" d="M569.19,125.62a39.64,39.64,0,0,0,6,27.43,38.7,38.7,0,0,0,16.08,13.53"/><path class="cls-1" d="M536.27,103.08c-.26,11.4,1.12,28.25,10.86,44.1,10.44,17,20.4,16.4,42.64,38.8,9.45,9.52,18.05,21.33,35.24,44.94,10.44,14.34,18.74,26.55,24.51,35.23"/><path class="cls-1" d="M502.18,89.16a110,110,0,0,1-14.53,5.67c-21.44,6.68-32.29,2.9-49.28,5.37-21.75,3.15-37.05,14.13-47.24,21.44-12.8,9.2-20.9,18.68-32.93,34.47-29.63,38.89-40.66,60.3-62.55,91.15-26.06,36.71-26.55,29.11-40.09,50.81-36.66,58.76-37.93,122.33-38.81,166.21a467.64,467.64,0,0,0,4.85,76.85"/><path class="cls-1" d="M503.08,733.6a89.45,89.45,0,0,1,17,44.6"/><path class="cls-1" d="M529.27,725.74A99.09,99.09,0,0,0,543.6,769.9"/><circle class="cls-2" cx="529.57" cy="653.02" r="1.44"/><circle class="cls-2" cx="564.27" cy="834.22" r="1.58"/><circle class="cls-2" cx="138.89" cy="801.18" r="1.77"/><path class="cls-1" d="M307.44,849.8c27.67,24,40.8,55.07,32.15,79.06a46.52,46.52,0,0,1-11.49,17.49"/><path class="cls-1" d="M342,908.72a55,55,0,0,1,19.45,22.43,53.12,53.12,0,0,1,4.42,15.2"/><path class="cls-1" d="M729,619.33c9.91,1.41,73.88,11.37,95.67,57.89,13.42,28.65,9.74,68.82,9.19,74.3-2.08,20.9-6.62,24.71-5.36,42.89,1.75,25.17,11.26,29.75,12.26,55.15.55,14-1.88,24.19-6.13,42.13a280.92,280.92,0,0,1-16.85,49.78"/><path class="cls-1" d="M210.32,712.49A415.13,415.13,0,0,0,.35,946.35"/></g></svg>